<?xml version="1.0" encoding="UTF-8" standalone="no"?>
<!DOCTYPE svg PUBLIC "-//W3C//DTD SVG 1.1//EN"
 "http://www.w3.org/Graphics/SVG/1.1/DTD/svg11.dtd">
<!-- Generated by graphviz version 2.43.0 (0)
 -->
<!-- Title: IFU_FSM Pages: 1 -->
<svg width="417pt" height="162pt"
 viewBox="0.00 0.00 417.00 162.00" xmlns="http://www.w3.org/2000/svg" xmlns:xlink="http://www.w3.org/1999/xlink">
<g id="graph0" class="graph" transform="scale(1 1) rotate(0) translate(4 158)">
<title>IFU_FSM</title>
<polygon fill="white" stroke="transparent" points="-4,4 -4,-158 413,-158 413,4 -4,4"/>
<!-- RESET -->
<g id="node1" class="node">
<title>RESET</title>
<ellipse fill="#ffb6c1" stroke="black" cx="43" cy="-69" rx="43" ry="29"/>
<text text-anchor="middle" x="43" y="-65.3" font-family="sans-serif" font-size="14.00">RESET</text>
</g>
<!-- FETCH -->
<g id="node2" class="node">
<title>FETCH</title>
<ellipse fill="#90ee90" stroke="black" cx="207" cy="-69" rx="43" ry="29"/>
<text text-anchor="middle" x="207" y="-65.3" font-family="sans-serif" font-size="14.00">FETCH</text>
</g>
<!-- RESET&#45;&gt;FETCH -->
<g id="edge1" class="edge">
<title>RESET&#45;&gt;FETCH</title>
<path fill="none" stroke="black" d="M83.96,-78.67C83.96,-78.67 156.28,-78.67 156.28,-78.67"/>
<polygon fill="black" stroke="black" points="156.28,-82.17 166.28,-78.67 156.28,-75.17 156.28,-82.17"/>
<text text-anchor="middle" x="125" y="-81.8" font-family="sans-serif" font-size="9.00">rst_n</text>
<text text-anchor="middle" x="125" y="-71.8" font-family="sans-serif" font-size="9.00">de&#45;assert</text>
</g>
<!-- FETCH&#45;&gt;FETCH -->
<g id="edge2" class="edge">
<title>FETCH&#45;&gt;FETCH</title>
<path fill="none" stroke="black" d="M166,-59.33C145.5,-59.33 125,-59.33 125,-59.33 125,-59.33 125,-20 125,-20 125,-20 287,-20 287,-20 287,-20 287,-44.5 287,-44.5 287,-44.5 240.14,-44.5 240.14,-44.5"/>
<polygon fill="black" stroke="black" points="240.14,-41 230.14,-44.5 240.14,-48 240.14,-41"/>
</g>
<!-- WAIT -->
<g id="node3" class="node">
<title>WAIT</title>
<ellipse fill="#ffffe0" stroke="black" cx="366" cy="-110" rx="43" ry="29"/>
<text text-anchor="middle" x="366" y="-106.3" font-family="sans-serif" font-size="14.00">WAIT</text>
</g>
<!-- FETCH&#45;&gt;WAIT -->
<g id="edge3" class="edge">
<title>FETCH&#45;&gt;WAIT</title>
<path fill="none" stroke="black" d="M241.11,-86.67C241.11,-86.67 330.31,-86.67 330.31,-86.67"/>
<polygon fill="black" stroke="black" points="330.31,-90.17 340.31,-86.67 330.31,-83.17 330.31,-90.17"/>
<text text-anchor="middle" x="286.5" y="-146.8" font-family="sans-serif" font-size="9.00">AXI</text>
<text text-anchor="middle" x="286.5" y="-136.8" font-family="sans-serif" font-size="9.00">stall</text>
</g>
<!-- EXCEPTION -->
<g id="node4" class="node">
<title>EXCEPTION</title>
<ellipse fill="#ffa500" stroke="black" cx="366" cy="-29" rx="43" ry="29"/>
<text text-anchor="middle" x="366" y="-25.3" font-family="sans-serif" font-size="14.00">EXCEPTION</text>
</g>
<!-- FETCH&#45;&gt;EXCEPTION -->
<g id="edge5" class="edge">
<title>FETCH&#45;&gt;EXCEPTION</title>
<path fill="none" stroke="black" d="M238.41,-49C238.41,-49 324.65,-49 324.65,-49"/>
<polygon fill="black" stroke="black" points="324.65,-52.5 334.65,-49 324.65,-45.5 324.65,-52.5"/>
<text text-anchor="middle" x="286.5" y="-60.8" font-family="sans-serif" font-size="9.00">fetch</text>
<text text-anchor="middle" x="286.5" y="-50.8" font-family="sans-serif" font-size="9.00">error</text>
</g>
<!-- WAIT&#45;&gt;FETCH -->
<g id="edge4" class="edge">
<title>WAIT&#45;&gt;FETCH</title>
<path fill="none" stroke="black" d="M331.89,-92.33C331.89,-92.33 242.69,-92.33 242.69,-92.33"/>
<polygon fill="black" stroke="black" points="242.69,-88.83 232.69,-92.33 242.69,-95.83 242.69,-88.83"/>
<text text-anchor="middle" x="286.5" y="-103.8" font-family="sans-serif" font-size="9.00">AXI</text>
<text text-anchor="middle" x="286.5" y="-93.8" font-family="sans-serif" font-size="9.00">ready</text>
</g>
<!-- EXCEPTION&#45;&gt;FETCH -->
<g id="edge6" class="edge">
<title>EXCEPTION&#45;&gt;FETCH</title>
<path fill="none" stroke="black" d="M342.88,-53.5C342.88,-53.5 253.39,-53.5 253.39,-53.5"/>
<polygon fill="black" stroke="black" points="253.39,-50 243.39,-53.5 253.39,-57 253.39,-50"/>
<text text-anchor="middle" x="286.5" y="-17.8" font-family="sans-serif" font-size="9.00">trap</text>
<text text-anchor="middle" x="286.5" y="-7.8" font-family="sans-serif" font-size="9.00">handled</text>
</g>
</g>
</svg>
