<?xml version="1.0" encoding="UTF-8" standalone="no"?>
<!DOCTYPE svg PUBLIC "-//W3C//DTD SVG 1.1//EN"
 "http://www.w3.org/Graphics/SVG/1.1/DTD/svg11.dtd">
<!-- Generated by graphviz version 2.43.0 (0)
 -->
<!-- Title: DDR_Integration Pages: 1 -->
<svg width="812pt" height="52pt"
 viewBox="0.00 0.00 812.00 51.50" xmlns="http://www.w3.org/2000/svg" xmlns:xlink="http://www.w3.org/1999/xlink">
<g id="graph0" class="graph" transform="scale(1 1) rotate(0) translate(4 47.5)">
<title>DDR_Integration</title>
<polygon fill="white" stroke="transparent" points="-4,4 -4,-47.5 808,-47.5 808,4 -4,4"/>
<!-- CORE -->
<g id="node1" class="node">
<title>CORE</title>
<path fill="#87ceeb" stroke="black" d="M103,-43C103,-43 12,-43 12,-43 6,-43 0,-37 0,-31 0,-31 0,-12 0,-12 0,-6 6,0 12,0 12,0 103,0 103,0 109,0 115,-6 115,-12 115,-12 115,-31 115,-31 115,-37 109,-43 103,-43"/>
<text text-anchor="middle" x="57.5" y="-25.3" font-family="sans-serif" font-size="14.00">RV64 Core</text>
<text text-anchor="middle" x="57.5" y="-10.3" font-family="sans-serif" font-size="14.00">AXI4 Master</text>
</g>
<!-- BRIDGE -->
<g id="node2" class="node">
<title>BRIDGE</title>
<path fill="#90ee90" stroke="black" d="M342,-43C342,-43 236,-43 236,-43 230,-43 224,-37 224,-31 224,-31 224,-12 224,-12 224,-6 230,0 236,0 236,0 342,0 342,0 348,0 354,-6 354,-12 354,-12 354,-31 354,-31 354,-37 348,-43 342,-43"/>
<text text-anchor="middle" x="289" y="-25.3" font-family="sans-serif" font-size="14.00">AXI4&#45;to&#45;DDR4</text>
<text text-anchor="middle" x="289" y="-10.3" font-family="sans-serif" font-size="14.00">Controller</text>
</g>
<!-- CORE&#45;&gt;BRIDGE -->
<g id="edge1" class="edge">
<title>CORE&#45;&gt;BRIDGE</title>
<path fill="none" stroke="black" d="M125.02,-21.5C125.02,-21.5 213.59,-21.5 213.59,-21.5"/>
<polygon fill="black" stroke="black" points="213.59,-25 223.59,-21.5 213.59,-18 213.59,-25"/>
<polygon fill="black" stroke="black" points="125.02,-18 115.02,-21.5 125.02,-25 125.02,-18"/>
<text text-anchor="middle" x="169.5" y="-24.5" font-family="sans-serif" font-size="10.00">AXI4</text>
</g>
<!-- PHY -->
<g id="node3" class="node">
<title>PHY</title>
<path fill="#ffffe0" stroke="black" d="M569,-43C569,-43 492,-43 492,-43 486,-43 480,-37 480,-31 480,-31 480,-12 480,-12 480,-6 486,0 492,0 492,0 569,0 569,0 575,0 581,-6 581,-12 581,-12 581,-31 581,-31 581,-37 575,-43 569,-43"/>
<text text-anchor="middle" x="530.5" y="-17.8" font-family="sans-serif" font-size="14.00">DDR4 PHY</text>
</g>
<!-- BRIDGE&#45;&gt;PHY -->
<g id="edge2" class="edge">
<title>BRIDGE&#45;&gt;PHY</title>
<path fill="none" stroke="black" d="M354.04,-21.5C354.04,-21.5 469.9,-21.5 469.9,-21.5"/>
<polygon fill="black" stroke="black" points="469.9,-25 479.9,-21.5 469.9,-18 469.9,-25"/>
<text text-anchor="middle" x="417" y="-35.5" font-family="sans-serif" font-size="10.00">DDR4</text>
<text text-anchor="middle" x="417" y="-24.5" font-family="sans-serif" font-size="10.00">Protocol</text>
</g>
<!-- DRAM -->
<g id="node4" class="node">
<title>DRAM</title>
<path fill="#ffb6c1" stroke="black" d="M792,-43C792,-43 715,-43 715,-43 709,-43 703,-37 703,-31 703,-31 703,-12 703,-12 703,-6 709,0 715,0 715,0 792,0 792,0 798,0 804,-6 804,-12 804,-12 804,-31 804,-31 804,-37 798,-43 792,-43"/>
<text text-anchor="middle" x="753.5" y="-25.3" font-family="sans-serif" font-size="14.00">DDR4</text>
<text text-anchor="middle" x="753.5" y="-10.3" font-family="sans-serif" font-size="14.00">SDRAM</text>
</g>
<!-- PHY&#45;&gt;DRAM -->
<g id="edge3" class="edge">
<title>PHY&#45;&gt;DRAM</title>
<path fill="none" stroke="black" d="M591.1,-21.5C591.1,-21.5 692.71,-21.5 692.71,-21.5"/>
<polygon fill="black" stroke="black" points="692.71,-25 702.71,-21.5 692.71,-18 692.71,-25"/>
<polygon fill="black" stroke="black" points="591.1,-18 581.1,-21.5 591.1,-25 591.1,-18"/>
<text text-anchor="middle" x="642" y="-35.5" font-family="sans-serif" font-size="10.00">DDR4</text>
<text text-anchor="middle" x="642" y="-24.5" font-family="sans-serif" font-size="10.00">Signals</text>
</g>
</g>
</svg>
