<?xml version="1.0" encoding="UTF-8" standalone="no"?>
<!DOCTYPE svg PUBLIC "-//W3C//DTD SVG 1.1//EN"
 "http://www.w3.org/Graphics/SVG/1.1/DTD/svg11.dtd">
<!-- Generated by graphviz version 2.43.0 (0)
 -->
<!-- Title: Integration Pages: 1 -->
<svg width="833pt" height="673pt"
 viewBox="0.00 0.00 833.00 673.00" xmlns="http://www.w3.org/2000/svg" xmlns:xlink="http://www.w3.org/1999/xlink">
<g id="graph0" class="graph" transform="scale(1 1) rotate(0) translate(4 669)">
<title>Integration</title>
<polygon fill="white" stroke="transparent" points="-4,4 -4,-669 829,-669 829,4 -4,4"/>
<g id="clust1" class="cluster">
<title>cluster_core</title>
<path fill="#e0f0ff" stroke="#4682b4" stroke-width="2" d="M20,-8C20,-8 465,-8 465,-8 471,-8 477,-14 477,-20 477,-20 477,-507 477,-507 477,-513 471,-519 465,-519 465,-519 20,-519 20,-519 14,-519 8,-513 8,-507 8,-507 8,-20 8,-20 8,-14 14,-8 20,-8"/>
<text text-anchor="middle" x="242.5" y="-503.8" font-family="Arial Bold" font-size="14.00">RV64 Core</text>
</g>
<!-- CORE -->
<g id="node1" class="node">
<title>CORE</title>
<path fill="#90ee90" stroke="black" d="M122,-277C122,-277 45,-277 45,-277 39,-277 33,-271 33,-265 33,-265 33,-239 33,-239 33,-233 39,-227 45,-227 45,-227 122,-227 122,-227 128,-227 134,-233 134,-239 134,-239 134,-265 134,-265 134,-271 128,-277 122,-277"/>
<text text-anchor="middle" x="83.5" y="-255.8" font-family="sans-serif" font-size="14.00">Core</text>
<text text-anchor="middle" x="83.5" y="-240.8" font-family="sans-serif" font-size="14.00">Logic</text>
</g>
<!-- IFACE -->
<g id="node2" class="node">
<title>IFACE</title>
<path fill="#f5deb3" stroke="black" d="M440,-471C440,-471 363,-471 363,-471 357,-471 351,-465 351,-459 351,-459 351,-433 351,-433 351,-427 357,-421 363,-421 363,-421 440,-421 440,-421 446,-421 452,-427 452,-433 452,-433 452,-459 452,-459 452,-465 446,-471 440,-471"/>
<text text-anchor="middle" x="401.5" y="-449.8" font-family="sans-serif" font-size="14.00">Wishbone</text>
<text text-anchor="middle" x="401.5" y="-434.8" font-family="sans-serif" font-size="14.00">Interface</text>
</g>
<!-- CORE&#45;&gt;IFACE -->
<g id="edge5" class="edge">
<title>CORE&#45;&gt;IFACE</title>
<path fill="none" stroke="black" stroke-width="2" d="M134.03,-264.5C213.57,-264.5 359,-264.5 359,-264.5 359,-264.5 359,-410.76 359,-410.76"/>
<polygon fill="black" stroke="black" stroke-width="2" points="355.5,-410.76 359,-420.76 362.5,-410.76 355.5,-410.76"/>
</g>
<!-- JTAG_IF -->
<g id="node3" class="node">
<title>JTAG_IF</title>
<path fill="#ffa500" stroke="black" d="M429,-277C429,-277 374,-277 374,-277 368,-277 362,-271 362,-265 362,-265 362,-239 362,-239 362,-233 368,-227 374,-227 374,-227 429,-227 429,-227 435,-227 441,-233 441,-239 441,-239 441,-265 441,-265 441,-271 435,-277 429,-277"/>
<text text-anchor="middle" x="401.5" y="-248.3" font-family="sans-serif" font-size="14.00">JTAG</text>
</g>
<!-- CORE&#45;&gt;JTAG_IF -->
<g id="edge6" class="edge">
<title>CORE&#45;&gt;JTAG_IF</title>
<path fill="none" stroke="black" stroke-width="2" d="M134.24,-252C134.24,-252 351.99,-252 351.99,-252"/>
<polygon fill="black" stroke="black" stroke-width="2" points="351.99,-255.5 361.99,-252 351.99,-248.5 351.99,-255.5"/>
</g>
<!-- CLK_IF -->
<g id="node4" class="node">
<title>CLK_IF</title>
<path fill="#ffb6c1" stroke="black" d="M440,-83C440,-83 363,-83 363,-83 357,-83 351,-77 351,-71 351,-71 351,-45 351,-45 351,-39 357,-33 363,-33 363,-33 440,-33 440,-33 446,-33 452,-39 452,-45 452,-45 452,-71 452,-71 452,-77 446,-83 440,-83"/>
<text text-anchor="middle" x="401.5" y="-61.8" font-family="sans-serif" font-size="14.00">Clock/</text>
<text text-anchor="middle" x="401.5" y="-46.8" font-family="sans-serif" font-size="14.00">Reset</text>
</g>
<!-- CORE&#45;&gt;CLK_IF -->
<g id="edge7" class="edge">
<title>CORE&#45;&gt;CLK_IF</title>
<path fill="none" stroke="black" stroke-width="2" d="M134.25,-239.5C212.83,-239.5 355,-239.5 355,-239.5 355,-239.5 355,-93.24 355,-93.24"/>
<polygon fill="black" stroke="black" stroke-width="2" points="358.5,-93.24 355,-83.24 351.5,-93.24 358.5,-93.24"/>
</g>
<!-- MEM -->
<g id="node5" class="node">
<title>MEM</title>
<path fill="#ffffe0" stroke="black" d="M813,-665C813,-665 722,-665 722,-665 716,-665 710,-659 710,-653 710,-653 710,-627 710,-627 710,-621 716,-615 722,-615 722,-615 813,-615 813,-615 819,-615 825,-621 825,-627 825,-627 825,-653 825,-653 825,-659 819,-665 813,-665"/>
<text text-anchor="middle" x="767.5" y="-643.8" font-family="sans-serif" font-size="14.00">External</text>
<text text-anchor="middle" x="767.5" y="-628.8" font-family="sans-serif" font-size="14.00">Memory</text>
</g>
<!-- IFACE&#45;&gt;MEM -->
<g id="edge1" class="edge">
<title>IFACE&#45;&gt;MEM</title>
<path fill="none" stroke="#2e8b57" stroke-width="2.5" d="M402,-481.36C402,-481.36 402,-640 402,-640 402,-640 699.99,-640 699.99,-640"/>
<polygon fill="#2e8b57" stroke="#2e8b57" stroke-width="2.5" points="405.5,-481.36 402,-471.36 398.5,-481.36 405.5,-481.36"/>
<polygon fill="#2e8b57" stroke="#2e8b57" stroke-width="2.5" points="699.99,-643.5 709.99,-640 699.99,-636.5 699.99,-643.5"/>
<text text-anchor="middle" x="581" y="-643.2" font-family="sans-serif" font-size="11.00"> &#160;&#160;WB &#160;&#160;</text>
</g>
<!-- PERIPH -->
<g id="node6" class="node">
<title>PERIPH</title>
<path fill="#d3d3d3" stroke="black" d="M813,-471C813,-471 722,-471 722,-471 716,-471 710,-465 710,-459 710,-459 710,-433 710,-433 710,-427 716,-421 722,-421 722,-421 813,-421 813,-421 819,-421 825,-427 825,-433 825,-433 825,-459 825,-459 825,-465 819,-471 813,-471"/>
<text text-anchor="middle" x="767.5" y="-449.8" font-family="sans-serif" font-size="14.00">Peripheral</text>
<text text-anchor="middle" x="767.5" y="-434.8" font-family="sans-serif" font-size="14.00">Bus</text>
</g>
<!-- IFACE&#45;&gt;PERIPH -->
<g id="edge2" class="edge">
<title>IFACE&#45;&gt;PERIPH</title>
<path fill="none" stroke="#2e8b57" stroke-width="2.5" d="M462.01,-446C462.01,-446 699.99,-446 699.99,-446"/>
<polygon fill="#2e8b57" stroke="#2e8b57" stroke-width="2.5" points="699.99,-449.5 709.99,-446 699.99,-442.5 699.99,-449.5"/>
<polygon fill="#2e8b57" stroke="#2e8b57" stroke-width="2.5" points="462.01,-442.5 452.01,-446 462.01,-449.5 462.01,-442.5"/>
<text text-anchor="middle" x="581" y="-449.2" font-family="sans-serif" font-size="11.00"> &#160;&#160;WB &#160;&#160;</text>
</g>
<!-- DEBUG -->
<g id="node7" class="node">
<title>DEBUG</title>
<path fill="#ffa500" stroke="black" d="M806,-277C806,-277 729,-277 729,-277 723,-277 717,-271 717,-265 717,-265 717,-239 717,-239 717,-233 723,-227 729,-227 729,-227 806,-227 806,-227 812,-227 818,-233 818,-239 818,-239 818,-265 818,-265 818,-271 812,-277 806,-277"/>
<text text-anchor="middle" x="767.5" y="-255.8" font-family="sans-serif" font-size="14.00">Debug</text>
<text text-anchor="middle" x="767.5" y="-240.8" font-family="sans-serif" font-size="14.00">Probe</text>
</g>
<!-- JTAG_IF&#45;&gt;DEBUG -->
<g id="edge3" class="edge">
<title>JTAG_IF&#45;&gt;DEBUG</title>
<path fill="none" stroke="#4169e1" stroke-width="2" d="M441.02,-252C441.02,-252 706.78,-252 706.78,-252"/>
<polygon fill="#4169e1" stroke="#4169e1" stroke-width="2" points="706.78,-255.5 716.78,-252 706.78,-248.5 706.78,-255.5"/>
<text text-anchor="middle" x="581" y="-255.2" font-family="sans-serif" font-size="11.00"> &#160;JTAG &#160;</text>
</g>
<!-- CLK_GEN -->
<g id="node8" class="node">
<title>CLK_GEN</title>
<path fill="#ffb6c1" stroke="black" d="M813,-83C813,-83 722,-83 722,-83 716,-83 710,-77 710,-71 710,-71 710,-45 710,-45 710,-39 716,-33 722,-33 722,-33 813,-33 813,-33 819,-33 825,-39 825,-45 825,-45 825,-71 825,-71 825,-77 819,-83 813,-83"/>
<text text-anchor="middle" x="767.5" y="-61.8" font-family="sans-serif" font-size="14.00">Clock</text>
<text text-anchor="middle" x="767.5" y="-46.8" font-family="sans-serif" font-size="14.00">Generator</text>
</g>
<!-- CLK_IF&#45;&gt;CLK_GEN -->
<g id="edge4" class="edge">
<title>CLK_IF&#45;&gt;CLK_GEN</title>
<path fill="none" stroke="black" stroke-width="2" d="M452.01,-58C452.01,-58 699.99,-58 699.99,-58"/>
<polygon fill="black" stroke="black" stroke-width="2" points="699.99,-61.5 709.99,-58 699.99,-54.5 699.99,-61.5"/>
<text text-anchor="middle" x="581" y="-61.2" font-family="sans-serif" font-size="11.00"> clk/rst </text>
</g>
</g>
</svg>
