<?xml version="1.0" encoding="UTF-8" standalone="no"?>
<!DOCTYPE svg PUBLIC "-//W3C//DTD SVG 1.1//EN"
 "http://www.w3.org/Graphics/SVG/1.1/DTD/svg11.dtd">
<!-- Generated by graphviz version 2.43.0 (0)
 -->
<!-- Title: Clock_System Pages: 1 -->
<svg width="681pt" height="412pt"
 viewBox="0.00 0.00 681.00 412.00" xmlns="http://www.w3.org/2000/svg" xmlns:xlink="http://www.w3.org/1999/xlink">
<g id="graph0" class="graph" transform="scale(1 1) rotate(0) translate(4 408)">
<title>Clock_System</title>
<polygon fill="white" stroke="transparent" points="-4,4 -4,-408 677,-408 677,4 -4,4"/>
<g id="clust1" class="cluster">
<title>cluster_components</title>
<path fill="#f0f0f0" stroke="#606060" d="M20,-8C20,-8 653,-8 653,-8 659,-8 665,-14 665,-20 665,-20 665,-78 665,-78 665,-84 659,-90 653,-90 653,-90 20,-90 20,-90 14,-90 8,-84 8,-78 8,-78 8,-20 8,-20 8,-14 14,-8 20,-8"/>
<text text-anchor="middle" x="336.5" y="-74.8" font-family="Arial Bold" font-size="14.00">RV64 Core Components</text>
</g>
<!-- EXT_CLK -->
<g id="node1" class="node">
<title>EXT_CLK</title>
<path fill="#ffa500" stroke="black" d="M381.5,-404C381.5,-404 290.5,-404 290.5,-404 284.5,-404 278.5,-398 278.5,-392 278.5,-392 278.5,-373 278.5,-373 278.5,-367 284.5,-361 290.5,-361 290.5,-361 381.5,-361 381.5,-361 387.5,-361 393.5,-367 393.5,-373 393.5,-373 393.5,-392 393.5,-392 393.5,-398 387.5,-404 381.5,-404"/>
<text text-anchor="middle" x="336" y="-386.3" font-family="sans-serif" font-size="14.00">External</text>
<text text-anchor="middle" x="336" y="-371.3" font-family="sans-serif" font-size="14.00">Clock Source</text>
</g>
<!-- PLL -->
<g id="node2" class="node">
<title>PLL</title>
<path fill="#ffffe0" stroke="black" d="M381.5,-289C381.5,-289 290.5,-289 290.5,-289 284.5,-289 278.5,-283 278.5,-277 278.5,-277 278.5,-258 278.5,-258 278.5,-252 284.5,-246 290.5,-246 290.5,-246 381.5,-246 381.5,-246 387.5,-246 393.5,-252 393.5,-258 393.5,-258 393.5,-277 393.5,-277 393.5,-283 387.5,-289 381.5,-289"/>
<text text-anchor="middle" x="336" y="-271.3" font-family="sans-serif" font-size="14.00">PLL/Clock</text>
<text text-anchor="middle" x="336" y="-256.3" font-family="sans-serif" font-size="14.00">Generator</text>
</g>
<!-- EXT_CLK&#45;&gt;PLL -->
<g id="edge1" class="edge">
<title>EXT_CLK&#45;&gt;PLL</title>
<path fill="none" stroke="black" d="M336,-360.87C336,-360.87 336,-299.03 336,-299.03"/>
<polygon fill="black" stroke="black" points="339.5,-299.03 336,-289.03 332.5,-299.03 339.5,-299.03"/>
</g>
<!-- CORE_CLK -->
<g id="node3" class="node">
<title>CORE_CLK</title>
<path fill="#87ceeb" stroke="black" d="M378,-174C378,-174 294,-174 294,-174 288,-174 282,-168 282,-162 282,-162 282,-143 282,-143 282,-137 288,-131 294,-131 294,-131 378,-131 378,-131 384,-131 390,-137 390,-143 390,-143 390,-162 390,-162 390,-168 384,-174 378,-174"/>
<text text-anchor="middle" x="336" y="-156.3" font-family="sans-serif" font-size="14.00">Core Clock</text>
<text text-anchor="middle" x="336" y="-141.3" font-family="sans-serif" font-size="14.00">(clk)</text>
</g>
<!-- PLL&#45;&gt;CORE_CLK -->
<g id="edge2" class="edge">
<title>PLL&#45;&gt;CORE_CLK</title>
<path fill="none" stroke="black" d="M336,-245.87C336,-245.87 336,-184.03 336,-184.03"/>
<polygon fill="black" stroke="black" points="339.5,-184.03 336,-174.03 332.5,-184.03 339.5,-184.03"/>
</g>
<!-- IFU -->
<g id="node4" class="node">
<title>IFU</title>
<path fill="#90ee90" stroke="black" d="M644.5,-59C644.5,-59 603.5,-59 603.5,-59 597.5,-59 591.5,-53 591.5,-47 591.5,-47 591.5,-28 591.5,-28 591.5,-22 597.5,-16 603.5,-16 603.5,-16 644.5,-16 644.5,-16 650.5,-16 656.5,-22 656.5,-28 656.5,-28 656.5,-47 656.5,-47 656.5,-53 650.5,-59 644.5,-59"/>
<text text-anchor="middle" x="624" y="-33.8" font-family="sans-serif" font-size="14.00">IFU</text>
</g>
<!-- CORE_CLK&#45;&gt;IFU -->
<g id="edge3" class="edge">
<title>CORE_CLK&#45;&gt;IFU</title>
<path fill="none" stroke="black" d="M390.17,-159C473.6,-159 624,-159 624,-159 624,-159 624,-69.22 624,-69.22"/>
<polygon fill="black" stroke="black" points="627.5,-69.22 624,-59.22 620.5,-69.22 627.5,-69.22"/>
</g>
<!-- IDU -->
<g id="node5" class="node">
<title>IDU</title>
<path fill="#90ee90" stroke="black" d="M529.5,-59C529.5,-59 488.5,-59 488.5,-59 482.5,-59 476.5,-53 476.5,-47 476.5,-47 476.5,-28 476.5,-28 476.5,-22 482.5,-16 488.5,-16 488.5,-16 529.5,-16 529.5,-16 535.5,-16 541.5,-22 541.5,-28 541.5,-28 541.5,-47 541.5,-47 541.5,-53 535.5,-59 529.5,-59"/>
<text text-anchor="middle" x="509" y="-33.8" font-family="sans-serif" font-size="14.00">IDU</text>
</g>
<!-- CORE_CLK&#45;&gt;IDU -->
<g id="edge4" class="edge">
<title>CORE_CLK&#45;&gt;IDU</title>
<path fill="none" stroke="black" d="M390.26,-145C441,-145 509,-145 509,-145 509,-145 509,-69.25 509,-69.25"/>
<polygon fill="black" stroke="black" points="512.5,-69.25 509,-59.25 505.5,-69.25 512.5,-69.25"/>
</g>
<!-- EXU -->
<g id="node6" class="node">
<title>EXU</title>
<path fill="#90ee90" stroke="black" d="M414.5,-59C414.5,-59 373.5,-59 373.5,-59 367.5,-59 361.5,-53 361.5,-47 361.5,-47 361.5,-28 361.5,-28 361.5,-22 367.5,-16 373.5,-16 373.5,-16 414.5,-16 414.5,-16 420.5,-16 426.5,-22 426.5,-28 426.5,-28 426.5,-47 426.5,-47 426.5,-53 420.5,-59 414.5,-59"/>
<text text-anchor="middle" x="394" y="-33.8" font-family="sans-serif" font-size="14.00">EXU</text>
</g>
<!-- CORE_CLK&#45;&gt;EXU -->
<g id="edge5" class="edge">
<title>CORE_CLK&#45;&gt;EXU</title>
<path fill="none" stroke="black" d="M375.75,-130.87C375.75,-130.87 375.75,-69.03 375.75,-69.03"/>
<polygon fill="black" stroke="black" points="379.25,-69.03 375.75,-59.03 372.25,-69.03 379.25,-69.03"/>
</g>
<!-- LSU -->
<g id="node7" class="node">
<title>LSU</title>
<path fill="#90ee90" stroke="black" d="M299.5,-59C299.5,-59 258.5,-59 258.5,-59 252.5,-59 246.5,-53 246.5,-47 246.5,-47 246.5,-28 246.5,-28 246.5,-22 252.5,-16 258.5,-16 258.5,-16 299.5,-16 299.5,-16 305.5,-16 311.5,-22 311.5,-28 311.5,-28 311.5,-47 311.5,-47 311.5,-53 305.5,-59 299.5,-59"/>
<text text-anchor="middle" x="279" y="-33.8" font-family="sans-serif" font-size="14.00">LSU</text>
</g>
<!-- CORE_CLK&#45;&gt;LSU -->
<g id="edge6" class="edge">
<title>CORE_CLK&#45;&gt;LSU</title>
<path fill="none" stroke="black" d="M296.75,-130.87C296.75,-130.87 296.75,-69.03 296.75,-69.03"/>
<polygon fill="black" stroke="black" points="300.25,-69.03 296.75,-59.03 293.25,-69.03 300.25,-69.03"/>
</g>
<!-- CSR -->
<g id="node8" class="node">
<title>CSR</title>
<path fill="#90ee90" stroke="black" d="M184.5,-59C184.5,-59 143.5,-59 143.5,-59 137.5,-59 131.5,-53 131.5,-47 131.5,-47 131.5,-28 131.5,-28 131.5,-22 137.5,-16 143.5,-16 143.5,-16 184.5,-16 184.5,-16 190.5,-16 196.5,-22 196.5,-28 196.5,-28 196.5,-47 196.5,-47 196.5,-53 190.5,-59 184.5,-59"/>
<text text-anchor="middle" x="164" y="-33.8" font-family="sans-serif" font-size="14.00">CSR</text>
</g>
<!-- CORE_CLK&#45;&gt;CSR -->
<g id="edge7" class="edge">
<title>CORE_CLK&#45;&gt;CSR</title>
<path fill="none" stroke="black" d="M281.58,-145C231.19,-145 164,-145 164,-145 164,-145 164,-69.25 164,-69.25"/>
<polygon fill="black" stroke="black" points="167.5,-69.25 164,-59.25 160.5,-69.25 167.5,-69.25"/>
</g>
<!-- RF -->
<g id="node9" class="node">
<title>RF</title>
<path fill="#90ee90" stroke="black" d="M69.5,-59C69.5,-59 28.5,-59 28.5,-59 22.5,-59 16.5,-53 16.5,-47 16.5,-47 16.5,-28 16.5,-28 16.5,-22 22.5,-16 28.5,-16 28.5,-16 69.5,-16 69.5,-16 75.5,-16 81.5,-22 81.5,-28 81.5,-28 81.5,-47 81.5,-47 81.5,-53 75.5,-59 69.5,-59"/>
<text text-anchor="middle" x="49" y="-33.8" font-family="sans-serif" font-size="14.00">Reg File</text>
</g>
<!-- CORE_CLK&#45;&gt;RF -->
<g id="edge8" class="edge">
<title>CORE_CLK&#45;&gt;RF</title>
<path fill="none" stroke="black" d="M281.68,-159C198.48,-159 49,-159 49,-159 49,-159 49,-69.22 49,-69.22"/>
<polygon fill="black" stroke="black" points="52.5,-69.22 49,-59.22 45.5,-69.22 52.5,-69.22"/>
</g>
</g>
</svg>
