<?xml version="1.0" encoding="UTF-8" standalone="no"?>
<!DOCTYPE svg PUBLIC "-//W3C//DTD SVG 1.1//EN"
 "http://www.w3.org/Graphics/SVG/1.1/DTD/svg11.dtd">
<!-- Generated by graphviz version 2.43.0 (0)
 -->
<!-- Title: Software_Stack Pages: 1 -->
<svg width="332pt" height="330pt"
 viewBox="0.00 0.00 332.00 330.00" xmlns="http://www.w3.org/2000/svg" xmlns:xlink="http://www.w3.org/1999/xlink">
<g id="graph0" class="graph" transform="scale(1 1) rotate(0) translate(4 326)">
<title>Software_Stack</title>
<polygon fill="white" stroke="transparent" points="-4,4 -4,-326 328,-326 328,4 -4,4"/>
<!-- APP -->
<g id="node1" class="node">
<title>APP</title>
<path fill="#90ee90" stroke="black" d="M312,-322C312,-322 120,-322 120,-322 114,-322 108,-316 108,-310 108,-310 108,-291 108,-291 108,-285 114,-279 120,-279 120,-279 312,-279 312,-279 318,-279 324,-285 324,-291 324,-291 324,-310 324,-310 324,-316 318,-322 312,-322"/>
<text text-anchor="middle" x="216" y="-296.8" font-family="sans-serif" font-size="14.00">User Applications</text>
</g>
<!-- LIB -->
<g id="node2" class="node">
<title>LIB</title>
<path fill="#ffffe0" stroke="black" d="M312,-229C312,-229 120,-229 120,-229 114,-229 108,-223 108,-217 108,-217 108,-198 108,-198 108,-192 114,-186 120,-186 120,-186 312,-186 312,-186 318,-186 324,-192 324,-198 324,-198 324,-217 324,-217 324,-223 318,-229 312,-229"/>
<text text-anchor="middle" x="216" y="-203.8" font-family="sans-serif" font-size="14.00">Libraries &amp; Runtime</text>
</g>
<!-- APP&#45;&gt;LIB -->
<g id="edge1" class="edge">
<title>APP&#45;&gt;LIB</title>
<path fill="none" stroke="black" d="M216,-278.93C216,-278.93 216,-239.28 216,-239.28"/>
<polygon fill="black" stroke="black" points="219.5,-239.27 216,-229.28 212.5,-239.28 219.5,-239.27"/>
</g>
<!-- FW -->
<g id="node3" class="node">
<title>FW</title>
<path fill="#87ceeb" stroke="black" d="M312,-136C312,-136 120,-136 120,-136 114,-136 108,-130 108,-124 108,-124 108,-105 108,-105 108,-99 114,-93 120,-93 120,-93 312,-93 312,-93 318,-93 324,-99 324,-105 324,-105 324,-124 324,-124 324,-130 318,-136 312,-136"/>
<text text-anchor="middle" x="216" y="-110.8" font-family="sans-serif" font-size="14.00">Firmware / Monitor</text>
</g>
<!-- LIB&#45;&gt;FW -->
<g id="edge2" class="edge">
<title>LIB&#45;&gt;FW</title>
<path fill="none" stroke="black" d="M216,-185.93C216,-185.93 216,-146.28 216,-146.28"/>
<polygon fill="black" stroke="black" points="219.5,-146.27 216,-136.28 212.5,-146.28 219.5,-146.27"/>
</g>
<!-- HW -->
<g id="node4" class="node">
<title>HW</title>
<path fill="#d3d3d3" stroke="black" d="M312,-43C312,-43 120,-43 120,-43 114,-43 108,-37 108,-31 108,-31 108,-12 108,-12 108,-6 114,0 120,0 120,0 312,0 312,0 318,0 324,-6 324,-12 324,-12 324,-31 324,-31 324,-37 318,-43 312,-43"/>
<text text-anchor="middle" x="216" y="-17.8" font-family="sans-serif" font-size="14.00">RV64 Core Hardware</text>
</g>
<!-- FW&#45;&gt;HW -->
<g id="edge3" class="edge">
<title>FW&#45;&gt;HW</title>
<path fill="none" stroke="black" d="M216,-92.93C216,-92.93 216,-53.28 216,-53.28"/>
<polygon fill="black" stroke="black" points="219.5,-53.27 216,-43.28 212.5,-53.28 219.5,-53.27"/>
</g>
<!-- APP_NOTE -->
<g id="node5" class="node">
<title>APP_NOTE</title>
<path fill="lightgrey" stroke="transparent" d="M60,-322C60,-322 12,-322 12,-322 6,-322 0,-316 0,-310 0,-310 0,-291 0,-291 0,-285 6,-279 12,-279 12,-279 60,-279 60,-279 66,-279 72,-285 72,-291 72,-291 72,-310 72,-310 72,-316 66,-322 60,-322"/>
<text text-anchor="middle" x="36" y="-296.8" font-family="sans-serif" font-size="14.00">U&#45;mode</text>
</g>
<!-- APP_NOTE&#45;&gt;APP -->
<g id="edge4" class="edge">
<title>APP_NOTE&#45;&gt;APP</title>
<path fill="none" stroke="gray" stroke-dasharray="5,2" d="M72.43,-300C72.43,-300 97.78,-300 97.78,-300"/>
<polygon fill="gray" stroke="gray" points="97.78,-303.5 107.78,-300 97.78,-296.5 97.78,-303.5"/>
</g>
<!-- FW_NOTE -->
<g id="node6" class="node">
<title>FW_NOTE</title>
<path fill="lightgrey" stroke="transparent" d="M60,-136C60,-136 12,-136 12,-136 6,-136 0,-130 0,-124 0,-124 0,-105 0,-105 0,-99 6,-93 12,-93 12,-93 60,-93 60,-93 66,-93 72,-99 72,-105 72,-105 72,-124 72,-124 72,-130 66,-136 60,-136"/>
<text text-anchor="middle" x="36" y="-110.8" font-family="sans-serif" font-size="14.00">M&#45;mode</text>
</g>
<!-- FW_NOTE&#45;&gt;FW -->
<g id="edge5" class="edge">
<title>FW_NOTE&#45;&gt;FW</title>
<path fill="none" stroke="gray" stroke-dasharray="5,2" d="M72.43,-114C72.43,-114 97.78,-114 97.78,-114"/>
<polygon fill="gray" stroke="gray" points="97.78,-117.5 107.78,-114 97.78,-110.5 97.78,-117.5"/>
</g>
</g>
</svg>
