<?xml version="1.0" encoding="UTF-8" standalone="no"?>
<!DOCTYPE svg PUBLIC "-//W3C//DTD SVG 1.1//EN"
 "http://www.w3.org/Graphics/SVG/1.1/DTD/svg11.dtd">
<!-- Generated by graphviz version 2.43.0 (0)
 -->
<!-- Title: IFU Pages: 1 -->
<svg width="977pt" height="441pt"
 viewBox="0.00 0.00 977.00 441.00" xmlns="http://www.w3.org/2000/svg" xmlns:xlink="http://www.w3.org/1999/xlink">
<g id="graph0" class="graph" transform="scale(1 1) rotate(0) translate(4 437)">
<title>IFU</title>
<polygon fill="white" stroke="transparent" points="-4,4 -4,-437 973,-437 973,4 -4,4"/>
<g id="clust1" class="cluster">
<title>cluster_inputs</title>
<path fill="none" stroke="#808080" stroke-dasharray="5,2" d="M447,-350C447,-350 929,-350 929,-350 935,-350 941,-356 941,-362 941,-362 941,-413 941,-413 941,-419 935,-425 929,-425 929,-425 447,-425 447,-425 441,-425 435,-419 435,-413 435,-413 435,-362 435,-362 435,-356 441,-350 447,-350"/>
<text text-anchor="middle" x="688" y="-409.8" font-family="Arial Bold" font-size="14.00">Inputs</text>
</g>
<g id="clust2" class="cluster">
<title>cluster_ifu</title>
<path fill="#e0f0ff" stroke="#4682b4" d="M393,-8C393,-8 731,-8 731,-8 737,-8 743,-14 743,-20 743,-20 743,-295 743,-295 743,-301 737,-307 731,-307 731,-307 393,-307 393,-307 387,-307 381,-301 381,-295 381,-295 381,-20 381,-20 381,-14 387,-8 393,-8"/>
<text text-anchor="middle" x="562" y="-291.8" font-family="Arial Bold" font-size="14.00">Instruction Fetch Unit</text>
</g>
<!-- RESET -->
<g id="node1" class="node">
<title>RESET</title>
<path fill="#ffb6c1" stroke="black" d="M632,-394C632,-394 584,-394 584,-394 578,-394 572,-388 572,-382 572,-382 572,-370 572,-370 572,-364 578,-358 584,-358 584,-358 632,-358 632,-358 638,-358 644,-364 644,-370 644,-370 644,-382 644,-382 644,-388 638,-394 632,-394"/>
<text text-anchor="middle" x="608" y="-372.3" font-family="sans-serif" font-size="14.00">Reset</text>
</g>
<!-- PC_REG -->
<g id="node5" class="node">
<title>PC_REG</title>
<path fill="#90ee90" stroke="black" d="M592,-276C592,-276 530,-276 530,-276 524,-276 518,-270 518,-264 518,-264 518,-252 518,-252 518,-246 524,-240 530,-240 530,-240 592,-240 592,-240 598,-240 604,-246 604,-252 604,-252 604,-264 604,-264 604,-270 598,-276 592,-276"/>
<text text-anchor="middle" x="561" y="-254.3" font-family="sans-serif" font-size="14.00">PC Register</text>
</g>
<!-- RESET&#45;&gt;PC_REG -->
<g id="edge1" class="edge">
<title>RESET&#45;&gt;PC_REG</title>
<path fill="none" stroke="black" d="M588,-357.82C588,-357.82 588,-286.01 588,-286.01"/>
<polygon fill="black" stroke="black" points="591.5,-286.01 588,-276.01 584.5,-286.01 591.5,-286.01"/>
<text text-anchor="middle" x="601.5" y="-317.8" font-family="sans-serif" font-size="9.00">reset_pc</text>
</g>
<!-- BRANCH -->
<g id="node2" class="node">
<title>BRANCH</title>
<path fill="#ffffe0" stroke="black" d="M920.5,-394C920.5,-394 843.5,-394 843.5,-394 837.5,-394 831.5,-388 831.5,-382 831.5,-382 831.5,-370 831.5,-370 831.5,-364 837.5,-358 843.5,-358 843.5,-358 920.5,-358 920.5,-358 926.5,-358 932.5,-364 932.5,-370 932.5,-370 932.5,-382 932.5,-382 932.5,-388 926.5,-394 920.5,-394"/>
<text text-anchor="middle" x="882" y="-379.8" font-family="sans-serif" font-size="14.00">Branch Target</text>
<text text-anchor="middle" x="882" y="-364.8" font-family="sans-serif" font-size="14.00">from EXU</text>
</g>
<!-- PC_MUX -->
<g id="node6" class="node">
<title>PC_MUX</title>
<path fill="#f5deb3" stroke="black" d="M689,-52C689,-52 627,-52 627,-52 621,-52 615,-46 615,-40 615,-40 615,-28 615,-28 615,-22 621,-16 627,-16 627,-16 689,-16 689,-16 695,-16 701,-22 701,-28 701,-28 701,-40 701,-40 701,-46 695,-52 689,-52"/>
<text text-anchor="middle" x="658" y="-37.8" font-family="sans-serif" font-size="14.00">Next PC</text>
<text text-anchor="middle" x="658" y="-22.8" font-family="sans-serif" font-size="14.00">Mux</text>
</g>
<!-- BRANCH&#45;&gt;PC_MUX -->
<g id="edge6" class="edge">
<title>BRANCH&#45;&gt;PC_MUX</title>
<path fill="none" stroke="black" d="M882,-357.78C882,-286.18 882,-28 882,-28 882,-28 711.19,-28 711.19,-28"/>
<polygon fill="black" stroke="black" points="711.19,-24.5 701.19,-28 711.19,-31.5 711.19,-24.5"/>
<text text-anchor="middle" x="936.5" y="-199.8" font-family="sans-serif" font-size="9.00">branch_target</text>
</g>
<!-- TRAP -->
<g id="node3" class="node">
<title>TRAP</title>
<path fill="#ffffe0" stroke="black" d="M776.5,-394C776.5,-394 699.5,-394 699.5,-394 693.5,-394 687.5,-388 687.5,-382 687.5,-382 687.5,-370 687.5,-370 687.5,-364 693.5,-358 699.5,-358 699.5,-358 776.5,-358 776.5,-358 782.5,-358 788.5,-364 788.5,-370 788.5,-370 788.5,-382 788.5,-382 788.5,-388 782.5,-394 776.5,-394"/>
<text text-anchor="middle" x="738" y="-379.8" font-family="sans-serif" font-size="14.00">Trap Vector</text>
<text text-anchor="middle" x="738" y="-364.8" font-family="sans-serif" font-size="14.00">from CSR</text>
</g>
<!-- TRAP&#45;&gt;PC_MUX -->
<g id="edge7" class="edge">
<title>TRAP&#45;&gt;PC_MUX</title>
<path fill="none" stroke="black" d="M761.75,-357.94C761.75,-288.14 761.75,-40 761.75,-40 761.75,-40 711.1,-40 711.1,-40"/>
<polygon fill="black" stroke="black" points="711.1,-36.5 701.1,-40 711.1,-43.5 711.1,-36.5"/>
<text text-anchor="middle" x="830" y="-199.8" font-family="sans-serif" font-size="9.00">trap_vector</text>
</g>
<!-- STALL -->
<g id="node4" class="node">
<title>STALL</title>
<path fill="#d3d3d3" stroke="black" d="M517,-394C517,-394 455,-394 455,-394 449,-394 443,-388 443,-382 443,-382 443,-370 443,-370 443,-364 449,-358 455,-358 455,-358 517,-358 517,-358 523,-358 529,-364 529,-370 529,-370 529,-382 529,-382 529,-388 523,-394 517,-394"/>
<text text-anchor="middle" x="486" y="-379.8" font-family="sans-serif" font-size="14.00">Pipeline</text>
<text text-anchor="middle" x="486" y="-364.8" font-family="sans-serif" font-size="14.00">Stall</text>
</g>
<!-- STALL&#45;&gt;PC_REG -->
<g id="edge13" class="edge">
<title>STALL&#45;&gt;PC_REG</title>
<path fill="none" stroke="gray" stroke-dasharray="5,2" d="M523.5,-357.82C523.5,-357.82 523.5,-286.01 523.5,-286.01"/>
<polygon fill="gray" stroke="gray" points="527,-286.01 523.5,-276.01 520,-286.01 527,-286.01"/>
</g>
<!-- IBUF -->
<g id="node9" class="node">
<title>IBUF</title>
<path fill="#e0ffff" stroke="black" d="M463,-276C463,-276 401,-276 401,-276 395,-276 389,-270 389,-264 389,-264 389,-252 389,-252 389,-246 395,-240 401,-240 401,-240 463,-240 463,-240 469,-240 475,-246 475,-252 475,-252 475,-264 475,-264 475,-270 469,-276 463,-276"/>
<text text-anchor="middle" x="432" y="-261.8" font-family="sans-serif" font-size="14.00">Instruction</text>
<text text-anchor="middle" x="432" y="-246.8" font-family="sans-serif" font-size="14.00">Buffer</text>
</g>
<!-- STALL&#45;&gt;IBUF -->
<g id="edge14" class="edge">
<title>STALL&#45;&gt;IBUF</title>
<path fill="none" stroke="gray" stroke-dasharray="5,2" d="M459,-357.82C459,-357.82 459,-286.01 459,-286.01"/>
<polygon fill="gray" stroke="gray" points="462.5,-286.01 459,-276.01 455.5,-286.01 462.5,-286.01"/>
</g>
<!-- PC_INC -->
<g id="node7" class="node">
<title>PC_INC</title>
<path fill="#f5deb3" stroke="black" d="M594,-164C594,-164 524,-164 524,-164 518,-164 512,-158 512,-152 512,-152 512,-140 512,-140 512,-134 518,-128 524,-128 524,-128 594,-128 594,-128 600,-128 606,-134 606,-140 606,-140 606,-152 606,-152 606,-158 600,-164 594,-164"/>
<text text-anchor="middle" x="559" y="-149.8" font-family="sans-serif" font-size="14.00">PC + 4/2</text>
<text text-anchor="middle" x="559" y="-134.8" font-family="sans-serif" font-size="14.00">Incrementer</text>
</g>
<!-- PC_REG&#45;&gt;PC_INC -->
<g id="edge3" class="edge">
<title>PC_REG&#45;&gt;PC_INC</title>
<path fill="none" stroke="black" d="M575.33,-239.51C575.33,-239.51 575.33,-174.15 575.33,-174.15"/>
<polygon fill="black" stroke="black" points="578.83,-174.15 575.33,-164.15 571.83,-174.15 578.83,-174.15"/>
</g>
<!-- ALIGN_CHK -->
<g id="node8" class="node">
<title>ALIGN_CHK</title>
<path fill="#ffa500" stroke="black" d="M723,-164C723,-164 661,-164 661,-164 655,-164 649,-158 649,-152 649,-152 649,-140 649,-140 649,-134 655,-128 661,-128 661,-128 723,-128 723,-128 729,-128 735,-134 735,-140 735,-140 735,-152 735,-152 735,-158 729,-164 723,-164"/>
<text text-anchor="middle" x="692" y="-149.8" font-family="sans-serif" font-size="14.00">Alignment</text>
<text text-anchor="middle" x="692" y="-134.8" font-family="sans-serif" font-size="14.00">Check</text>
</g>
<!-- PC_REG&#45;&gt;ALIGN_CHK -->
<g id="edge4" class="edge">
<title>PC_REG&#45;&gt;ALIGN_CHK</title>
<path fill="none" stroke="black" d="M604,-264C633.84,-264 668.25,-264 668.25,-264 668.25,-264 668.25,-174.18 668.25,-174.18"/>
<polygon fill="black" stroke="black" points="671.75,-174.18 668.25,-164.18 664.75,-174.18 671.75,-174.18"/>
</g>
<!-- AXI_IF -->
<g id="node10" class="node">
<title>AXI_IF</title>
<path fill="#f5deb3" stroke="black" d="M219,-164C219,-164 149,-164 149,-164 143,-164 137,-158 137,-152 137,-152 137,-140 137,-140 137,-134 143,-128 149,-128 149,-128 219,-128 219,-128 225,-128 231,-134 231,-140 231,-140 231,-152 231,-152 231,-158 225,-164 219,-164"/>
<text text-anchor="middle" x="184" y="-149.8" font-family="sans-serif" font-size="14.00">AXI4</text>
<text text-anchor="middle" x="184" y="-134.8" font-family="sans-serif" font-size="14.00">Master I/F</text>
</g>
<!-- PC_REG&#45;&gt;AXI_IF -->
<g id="edge2" class="edge">
<title>PC_REG&#45;&gt;AXI_IF</title>
<path fill="none" stroke="black" d="M546.67,-239.97C546.67,-223.6 546.67,-202 546.67,-202 546.67,-202 199.67,-202 199.67,-202 199.67,-202 199.67,-174.03 199.67,-174.03"/>
<polygon fill="black" stroke="black" points="203.17,-174.03 199.67,-164.03 196.17,-174.03 203.17,-174.03"/>
<text text-anchor="middle" x="302.5" y="-199.8" font-family="sans-serif" font-size="9.00">fetch_addr</text>
</g>
<!-- PC_OUT -->
<g id="node12" class="node">
<title>PC_OUT</title>
<path fill="#90ee90" stroke="black" d="M334,-164C334,-164 286,-164 286,-164 280,-164 274,-158 274,-152 274,-152 274,-140 274,-140 274,-134 280,-128 286,-128 286,-128 334,-128 334,-128 340,-128 346,-134 346,-140 346,-140 346,-152 346,-152 346,-158 340,-164 334,-164"/>
<text text-anchor="middle" x="310" y="-149.8" font-family="sans-serif" font-size="14.00">PC</text>
<text text-anchor="middle" x="310" y="-134.8" font-family="sans-serif" font-size="14.00">to IDU</text>
</g>
<!-- PC_REG&#45;&gt;PC_OUT -->
<g id="edge11" class="edge">
<title>PC_REG&#45;&gt;PC_OUT</title>
<path fill="none" stroke="black" d="M517.87,-258C504.64,-258 493.5,-258 493.5,-258 493.5,-258 493.5,-146 493.5,-146 493.5,-146 356.25,-146 356.25,-146"/>
<polygon fill="black" stroke="black" points="356.25,-142.5 346.25,-146 356.25,-149.5 356.25,-142.5"/>
</g>
<!-- PC_MUX&#45;&gt;PC_REG -->
<g id="edge8" class="edge">
<title>PC_MUX&#45;&gt;PC_REG</title>
<path fill="none" stroke="black" d="M634.33,-52.21C634.33,-104.61 634.33,-252 634.33,-252 634.33,-252 614.08,-252 614.08,-252"/>
<polygon fill="black" stroke="black" points="614.08,-248.5 604.08,-252 614.08,-255.5 614.08,-248.5"/>
<text text-anchor="middle" x="450.5" y="-143.8" font-family="sans-serif" font-size="9.00">next_pc</text>
</g>
<!-- PC_INC&#45;&gt;PC_MUX -->
<g id="edge5" class="edge">
<title>PC_INC&#45;&gt;PC_MUX</title>
<path fill="none" stroke="black" d="M606.02,-146C616.55,-146 624.67,-146 624.67,-146 624.67,-146 624.67,-62.49 624.67,-62.49"/>
<polygon fill="black" stroke="black" points="628.17,-62.49 624.67,-52.49 621.17,-62.49 628.17,-62.49"/>
<text text-anchor="middle" x="609" y="-87.8" font-family="sans-serif" font-size="9.00">PC+4/2</text>
</g>
<!-- ALIGN_CHK&#45;&gt;TRAP -->
<g id="edge12" class="edge">
<title>ALIGN_CHK&#45;&gt;TRAP</title>
<path fill="none" stroke="red" stroke-dasharray="5,2" d="M711.25,-164.05C711.25,-164.05 711.25,-347.72 711.25,-347.72"/>
<polygon fill="red" stroke="red" points="707.75,-347.72 711.25,-357.72 714.75,-347.72 707.75,-347.72"/>
<text text-anchor="middle" x="714.5" y="-255.8" font-family="sans-serif" font-size="9.00">misaligned</text>
</g>
<!-- INSTR_OUT -->
<g id="node11" class="node">
<title>INSTR_OUT</title>
<path fill="#90ee90" stroke="black" d="M82,-164C82,-164 12,-164 12,-164 6,-164 0,-158 0,-152 0,-152 0,-140 0,-140 0,-134 6,-128 12,-128 12,-128 82,-128 82,-128 88,-128 94,-134 94,-140 94,-140 94,-152 94,-152 94,-158 88,-164 82,-164"/>
<text text-anchor="middle" x="47" y="-149.8" font-family="sans-serif" font-size="14.00">Instruction</text>
<text text-anchor="middle" x="47" y="-134.8" font-family="sans-serif" font-size="14.00">to IDU</text>
</g>
<!-- IBUF&#45;&gt;INSTR_OUT -->
<g id="edge10" class="edge">
<title>IBUF&#45;&gt;INSTR_OUT</title>
<path fill="none" stroke="black" d="M388.96,-264C288.49,-264 47,-264 47,-264 47,-264 47,-174.18 47,-174.18"/>
<polygon fill="black" stroke="black" points="50.5,-174.18 47,-164.18 43.5,-174.18 50.5,-174.18"/>
</g>
<!-- AXI_IF&#45;&gt;IBUF -->
<g id="edge9" class="edge">
<title>AXI_IF&#45;&gt;IBUF</title>
<path fill="none" stroke="black" d="M168.33,-164.46C168.33,-194.83 168.33,-252 168.33,-252 168.33,-252 378.76,-252 378.76,-252"/>
<polygon fill="black" stroke="black" points="378.76,-255.5 388.76,-252 378.76,-248.5 378.76,-255.5"/>
<text text-anchor="middle" x="207" y="-199.8" font-family="sans-serif" font-size="9.00">instr_data</text>
</g>
</g>
</svg>
