<?xml version="1.0" encoding="UTF-8" standalone="no"?>
<!DOCTYPE svg PUBLIC "-//W3C//DTD SVG 1.1//EN"
 "http://www.w3.org/Graphics/SVG/1.1/DTD/svg11.dtd">
<!-- Generated by graphviz version 2.43.0 (0)
 -->
<!-- Title: Interrupt_Arch Pages: 1 -->
<svg width="1189pt" height="264pt"
 viewBox="0.00 0.00 1188.50 264.00" xmlns="http://www.w3.org/2000/svg" xmlns:xlink="http://www.w3.org/1999/xlink">
<g id="graph0" class="graph" transform="scale(1 1) rotate(0) translate(4 260)">
<title>Interrupt_Arch</title>
<polygon fill="white" stroke="transparent" points="-4,4 -4,-260 1184.5,-260 1184.5,4 -4,4"/>
<!-- EXT_INT -->
<g id="node1" class="node">
<title>EXT_INT</title>
<path fill="#ffa500" stroke="black" d="M110,-256C110,-256 12,-256 12,-256 6,-256 0,-250 0,-244 0,-244 0,-218 0,-218 0,-212 6,-206 12,-206 12,-206 110,-206 110,-206 116,-206 122,-212 122,-218 122,-218 122,-244 122,-244 122,-250 116,-256 110,-256"/>
<text text-anchor="middle" x="61" y="-242.3" font-family="sans-serif" font-size="14.00">External</text>
<text text-anchor="middle" x="61" y="-227.3" font-family="sans-serif" font-size="14.00">Interrupt</text>
<text text-anchor="middle" x="61" y="-212.3" font-family="sans-serif" font-size="14.00">Controller</text>
</g>
<!-- CSR -->
<g id="node3" class="node">
<title>CSR</title>
<path fill="#e0ffff" stroke="black" d="M246.5,-50C246.5,-50 169.5,-50 169.5,-50 163.5,-50 157.5,-44 157.5,-38 157.5,-38 157.5,-12 157.5,-12 157.5,-6 163.5,0 169.5,0 169.5,0 246.5,0 246.5,0 252.5,0 258.5,-6 258.5,-12 258.5,-12 258.5,-38 258.5,-38 258.5,-44 252.5,-50 246.5,-50"/>
<text text-anchor="middle" x="208" y="-28.8" font-family="sans-serif" font-size="14.00">CSR</text>
<text text-anchor="middle" x="208" y="-13.8" font-family="sans-serif" font-size="14.00">Unit</text>
</g>
<!-- EXT_INT&#45;&gt;CSR -->
<g id="edge1" class="edge">
<title>EXT_INT&#45;&gt;CSR</title>
<path fill="none" stroke="#dc143c" stroke-width="2.5" d="M122.27,-222C156.03,-222 191.17,-222 191.17,-222 191.17,-222 191.17,-60.35 191.17,-60.35"/>
<polygon fill="#dc143c" stroke="#dc143c" stroke-width="2.5" points="194.67,-60.35 191.17,-50.35 187.67,-60.35 194.67,-60.35"/>
<text text-anchor="middle" x="87.5" y="-125.2" font-family="sans-serif" font-size="11.00"> &#160;ext_irq &#160;</text>
</g>
<!-- SW_INT -->
<g id="node2" class="node">
<title>SW_INT</title>
<path fill="#90ee90" stroke="black" d="M398,-256C398,-256 314,-256 314,-256 308,-256 302,-250 302,-244 302,-244 302,-218 302,-218 302,-212 308,-206 314,-206 314,-206 398,-206 398,-206 404,-206 410,-212 410,-218 410,-218 410,-244 410,-244 410,-250 404,-256 398,-256"/>
<text text-anchor="middle" x="356" y="-234.8" font-family="sans-serif" font-size="14.00">Software</text>
<text text-anchor="middle" x="356" y="-219.8" font-family="sans-serif" font-size="14.00">Interrupt</text>
</g>
<!-- SW_INT&#45;&gt;CSR -->
<g id="edge2" class="edge">
<title>SW_INT&#45;&gt;CSR</title>
<path fill="none" stroke="#228b22" stroke-width="2.5" d="M301.89,-239C265.76,-239 224.83,-239 224.83,-239 224.83,-239 224.83,-60.39 224.83,-60.39"/>
<polygon fill="#228b22" stroke="#228b22" stroke-width="2.5" points="228.33,-60.39 224.83,-50.39 221.33,-60.39 228.33,-60.39"/>
<text text-anchor="middle" x="381" y="-125.2" font-family="sans-serif" font-size="11.00"> &#160;sw_irq &#160;</text>
</g>
<!-- CTRL -->
<g id="node4" class="node">
<title>CTRL</title>
<path fill="#f5deb3" stroke="black" d="M707.5,-50C707.5,-50 630.5,-50 630.5,-50 624.5,-50 618.5,-44 618.5,-38 618.5,-38 618.5,-12 618.5,-12 618.5,-6 624.5,0 630.5,0 630.5,0 707.5,0 707.5,0 713.5,0 719.5,-6 719.5,-12 719.5,-12 719.5,-38 719.5,-38 719.5,-44 713.5,-50 707.5,-50"/>
<text text-anchor="middle" x="669" y="-28.8" font-family="sans-serif" font-size="14.00">Control</text>
<text text-anchor="middle" x="669" y="-13.8" font-family="sans-serif" font-size="14.00">Unit</text>
</g>
<!-- CSR&#45;&gt;CTRL -->
<g id="edge3" class="edge">
<title>CSR&#45;&gt;CTRL</title>
<path fill="none" stroke="black" stroke-width="2.5" d="M258.65,-25C258.65,-25 608.26,-25 608.26,-25"/>
<polygon fill="black" stroke="black" stroke-width="2.5" points="608.26,-28.5 618.26,-25 608.26,-21.5 608.26,-28.5"/>
</g>
<!-- PC -->
<g id="node5" class="node">
<title>PC</title>
<path fill="#ffb6c1" stroke="black" d="M1168.5,-50C1168.5,-50 1091.5,-50 1091.5,-50 1085.5,-50 1079.5,-44 1079.5,-38 1079.5,-38 1079.5,-12 1079.5,-12 1079.5,-6 1085.5,0 1091.5,0 1091.5,0 1168.5,0 1168.5,0 1174.5,0 1180.5,-6 1180.5,-12 1180.5,-12 1180.5,-38 1180.5,-38 1180.5,-44 1174.5,-50 1168.5,-50"/>
<text text-anchor="middle" x="1130" y="-28.8" font-family="sans-serif" font-size="14.00">Program</text>
<text text-anchor="middle" x="1130" y="-13.8" font-family="sans-serif" font-size="14.00">Counter</text>
</g>
<!-- CTRL&#45;&gt;PC -->
<g id="edge4" class="edge">
<title>CTRL&#45;&gt;PC</title>
<path fill="none" stroke="#4169e1" stroke-width="2.5" d="M719.65,-25C719.65,-25 1069.26,-25 1069.26,-25"/>
<polygon fill="#4169e1" stroke="#4169e1" stroke-width="2.5" points="1069.26,-28.5 1079.26,-25 1069.26,-21.5 1069.26,-28.5"/>
</g>
</g>
</svg>
