<?xml version="1.0" encoding="UTF-8" standalone="no"?>
<!DOCTYPE svg PUBLIC "-//W3C//DTD SVG 1.1//EN"
 "http://www.w3.org/Graphics/SVG/1.1/DTD/svg11.dtd">
<!-- Generated by graphviz version 2.43.0 (0)
 -->
<!-- Title: DMA_Integration Pages: 1 -->
<svg width="801pt" height="179pt"
 viewBox="0.00 0.00 801.00 179.00" xmlns="http://www.w3.org/2000/svg" xmlns:xlink="http://www.w3.org/1999/xlink">
<g id="graph0" class="graph" transform="scale(1 1) rotate(0) translate(4 175)">
<title>DMA_Integration</title>
<polygon fill="white" stroke="transparent" points="-4,4 -4,-175 797,-175 797,4 -4,4"/>
<!-- CPU -->
<g id="node1" class="node">
<title>CPU</title>
<path fill="#87ceeb" stroke="black" d="M362,-171C362,-171 271,-171 271,-171 265,-171 259,-165 259,-159 259,-159 259,-140 259,-140 259,-134 265,-128 271,-128 271,-128 362,-128 362,-128 368,-128 374,-134 374,-140 374,-140 374,-159 374,-159 374,-165 368,-171 362,-171"/>
<text text-anchor="middle" x="316.5" y="-153.3" font-family="sans-serif" font-size="14.00">RV64 Core</text>
<text text-anchor="middle" x="316.5" y="-138.3" font-family="sans-serif" font-size="14.00">(AXI Master)</text>
</g>
<!-- INTERCONNECT -->
<g id="node3" class="node">
<title>INTERCONNECT</title>
<path fill="#ffa500" stroke="black" d="M593,-100.5C593,-100.5 473,-100.5 473,-100.5 467,-100.5 461,-94.5 461,-88.5 461,-88.5 461,-54.5 461,-54.5 461,-48.5 467,-42.5 473,-42.5 473,-42.5 593,-42.5 593,-42.5 599,-42.5 605,-48.5 605,-54.5 605,-54.5 605,-88.5 605,-88.5 605,-94.5 599,-100.5 593,-100.5"/>
<text text-anchor="middle" x="533" y="-75.3" font-family="sans-serif" font-size="14.00">AXI4</text>
<text text-anchor="middle" x="533" y="-60.3" font-family="sans-serif" font-size="14.00">Interconnect</text>
</g>
<!-- CPU&#45;&gt;INTERCONNECT -->
<g id="edge1" class="edge">
<title>CPU&#45;&gt;INTERCONNECT</title>
<path fill="none" stroke="black" d="M336,-117.86C336,-117.86 336,-91.38 336,-91.38 336,-91.38 450.76,-91.38 450.76,-91.38"/>
<polygon fill="black" stroke="black" points="332.5,-117.86 336,-127.86 339.5,-117.86 332.5,-117.86"/>
<polygon fill="black" stroke="black" points="450.76,-94.88 460.76,-91.38 450.76,-87.88 450.76,-94.88"/>
</g>
<!-- DMA -->
<g id="node2" class="node">
<title>DMA</title>
<path fill="#90ee90" stroke="black" d="M118,-107C118,-107 12,-107 12,-107 6,-107 0,-101 0,-95 0,-95 0,-76 0,-76 0,-70 6,-64 12,-64 12,-64 118,-64 118,-64 124,-64 130,-70 130,-76 130,-76 130,-95 130,-95 130,-101 124,-107 118,-107"/>
<text text-anchor="middle" x="65" y="-89.3" font-family="sans-serif" font-size="14.00">DMA Controller</text>
<text text-anchor="middle" x="65" y="-74.3" font-family="sans-serif" font-size="14.00">(AXI Master)</text>
</g>
<!-- DMA&#45;&gt;CPU -->
<g id="edge5" class="edge">
<title>DMA&#45;&gt;CPU</title>
<path fill="none" stroke="red" stroke-dasharray="5,2" d="M130.21,-82.25C199.14,-82.25 298,-82.25 298,-82.25 298,-82.25 298,-117.85 298,-117.85"/>
<polygon fill="red" stroke="red" points="294.5,-117.85 298,-127.85 301.5,-117.85 294.5,-117.85"/>
<text text-anchor="middle" x="194.5" y="-143.5" font-family="sans-serif" font-size="10.00">interrupt</text>
</g>
<!-- DMA&#45;&gt;INTERCONNECT -->
<g id="edge2" class="edge">
<title>DMA&#45;&gt;INTERCONNECT</title>
<path fill="none" stroke="black" d="M140.07,-73.12C140.07,-73.12 450.8,-73.12 450.8,-73.12"/>
<polygon fill="black" stroke="black" points="450.8,-76.63 460.8,-73.12 450.8,-69.63 450.8,-76.63"/>
<polygon fill="black" stroke="black" points="140.07,-69.63 130.07,-73.12 140.07,-76.63 140.07,-69.63"/>
</g>
<!-- MEM -->
<g id="node4" class="node">
<title>MEM</title>
<path fill="#ffffe0" stroke="black" d="M781,-144C781,-144 704,-144 704,-144 698,-144 692,-138 692,-132 692,-132 692,-113 692,-113 692,-107 698,-101 704,-101 704,-101 781,-101 781,-101 787,-101 793,-107 793,-113 793,-113 793,-132 793,-132 793,-138 787,-144 781,-144"/>
<text text-anchor="middle" x="742.5" y="-118.8" font-family="sans-serif" font-size="14.00">Memory</text>
</g>
<!-- INTERCONNECT&#45;&gt;MEM -->
<g id="edge3" class="edge">
<title>INTERCONNECT&#45;&gt;MEM</title>
<path fill="none" stroke="black" d="M615.14,-81.33C615.14,-81.33 760,-81.33 760,-81.33 760,-81.33 760,-90.95 760,-90.95"/>
<polygon fill="black" stroke="black" points="615.14,-77.83 605.14,-81.33 615.14,-84.83 615.14,-77.83"/>
<polygon fill="black" stroke="black" points="756.5,-90.95 760,-100.95 763.5,-90.95 756.5,-90.95"/>
</g>
<!-- PERIPH -->
<g id="node5" class="node">
<title>PERIPH</title>
<path fill="#d3d3d3" stroke="black" d="M781,-43C781,-43 704,-43 704,-43 698,-43 692,-37 692,-31 692,-31 692,-12 692,-12 692,-6 698,0 704,0 704,0 781,0 781,0 787,0 793,-6 793,-12 793,-12 793,-31 793,-31 793,-37 787,-43 781,-43"/>
<text text-anchor="middle" x="742.5" y="-17.8" font-family="sans-serif" font-size="14.00">Peripherals</text>
</g>
<!-- INTERCONNECT&#45;&gt;PERIPH -->
<g id="edge4" class="edge">
<title>INTERCONNECT&#45;&gt;PERIPH</title>
<path fill="none" stroke="black" d="M615.14,-62.17C615.14,-62.17 726,-62.17 726,-62.17 726,-62.17 726,-53.26 726,-53.26"/>
<polygon fill="black" stroke="black" points="615.14,-58.67 605.14,-62.17 615.14,-65.67 615.14,-58.67"/>
<polygon fill="black" stroke="black" points="729.5,-53.26 726,-43.26 722.5,-53.26 729.5,-53.26"/>
</g>
</g>
</svg>
