<?xml version="1.0" encoding="UTF-8" standalone="no"?>
<!DOCTYPE svg PUBLIC "-//W3C//DTD SVG 1.1//EN"
 "http://www.w3.org/Graphics/SVG/1.1/DTD/svg11.dtd">
<!-- Generated by graphviz version 2.43.0 (0)
 -->
<!-- Title: Debug_Arch Pages: 1 -->
<svg width="138pt" height="567pt"
 viewBox="0.00 0.00 138.00 567.00" xmlns="http://www.w3.org/2000/svg" xmlns:xlink="http://www.w3.org/1999/xlink">
<g id="graph0" class="graph" transform="scale(1 1) rotate(0) translate(4 563)">
<title>Debug_Arch</title>
<polygon fill="white" stroke="transparent" points="-4,4 -4,-563 134,-563 134,4 -4,4"/>
<!-- DEBUGGER -->
<g id="node1" class="node">
<title>DEBUGGER</title>
<path fill="#ffa500" stroke="black" d="M110.5,-559C110.5,-559 19.5,-559 19.5,-559 13.5,-559 7.5,-553 7.5,-547 7.5,-547 7.5,-528 7.5,-528 7.5,-522 13.5,-516 19.5,-516 19.5,-516 110.5,-516 110.5,-516 116.5,-516 122.5,-522 122.5,-528 122.5,-528 122.5,-547 122.5,-547 122.5,-553 116.5,-559 110.5,-559"/>
<text text-anchor="middle" x="65" y="-541.3" font-family="sans-serif" font-size="14.00">External</text>
<text text-anchor="middle" x="65" y="-526.3" font-family="sans-serif" font-size="14.00">Debugger (GDB)</text>
</g>
<!-- JTAG -->
<g id="node2" class="node">
<title>JTAG</title>
<path fill="#ffffe0" stroke="black" d="M103.5,-422C103.5,-422 26.5,-422 26.5,-422 20.5,-422 14.5,-416 14.5,-410 14.5,-410 14.5,-391 14.5,-391 14.5,-385 20.5,-379 26.5,-379 26.5,-379 103.5,-379 103.5,-379 109.5,-379 115.5,-385 115.5,-391 115.5,-391 115.5,-410 115.5,-410 115.5,-416 109.5,-422 103.5,-422"/>
<text text-anchor="middle" x="65" y="-404.3" font-family="sans-serif" font-size="14.00">JTAG</text>
<text text-anchor="middle" x="65" y="-389.3" font-family="sans-serif" font-size="14.00">Interface</text>
</g>
<!-- DEBUGGER&#45;&gt;JTAG -->
<g id="edge1" class="edge">
<title>DEBUGGER&#45;&gt;JTAG</title>
<path fill="none" stroke="black" d="M65,-515.79C65,-515.79 65,-432.11 65,-432.11"/>
<polygon fill="black" stroke="black" points="68.5,-432.11 65,-422.11 61.5,-432.11 68.5,-432.11"/>
<text text-anchor="middle" x="85" y="-472" font-family="sans-serif" font-size="10.00">JTAG</text>
<text text-anchor="middle" x="85" y="-461" font-family="sans-serif" font-size="10.00">Protocol</text>
</g>
<!-- DTM -->
<g id="node3" class="node">
<title>DTM</title>
<path fill="#90ee90" stroke="black" d="M118,-306C118,-306 12,-306 12,-306 6,-306 0,-300 0,-294 0,-294 0,-275 0,-275 0,-269 6,-263 12,-263 12,-263 118,-263 118,-263 124,-263 130,-269 130,-275 130,-275 130,-294 130,-294 130,-300 124,-306 118,-306"/>
<text text-anchor="middle" x="65" y="-288.3" font-family="sans-serif" font-size="14.00">Debug Transport</text>
<text text-anchor="middle" x="65" y="-273.3" font-family="sans-serif" font-size="14.00">Module</text>
</g>
<!-- JTAG&#45;&gt;DTM -->
<g id="edge2" class="edge">
<title>JTAG&#45;&gt;DTM</title>
<path fill="none" stroke="black" d="M65,-378.95C65,-378.95 65,-316.33 65,-316.33"/>
<polygon fill="black" stroke="black" points="68.5,-316.33 65,-306.33 61.5,-316.33 68.5,-316.33"/>
</g>
<!-- DM -->
<g id="node4" class="node">
<title>DM</title>
<path fill="#87ceeb" stroke="black" d="M103.5,-180C103.5,-180 26.5,-180 26.5,-180 20.5,-180 14.5,-174 14.5,-168 14.5,-168 14.5,-149 14.5,-149 14.5,-143 20.5,-137 26.5,-137 26.5,-137 103.5,-137 103.5,-137 109.5,-137 115.5,-143 115.5,-149 115.5,-149 115.5,-168 115.5,-168 115.5,-174 109.5,-180 103.5,-180"/>
<text text-anchor="middle" x="65" y="-162.3" font-family="sans-serif" font-size="14.00">Debug</text>
<text text-anchor="middle" x="65" y="-147.3" font-family="sans-serif" font-size="14.00">Module</text>
</g>
<!-- DTM&#45;&gt;DM -->
<g id="edge3" class="edge">
<title>DTM&#45;&gt;DM</title>
<path fill="none" stroke="black" d="M65,-262.84C65,-262.84 65,-190.3 65,-190.3"/>
<polygon fill="black" stroke="black" points="68.5,-190.3 65,-180.3 61.5,-190.3 68.5,-190.3"/>
<text text-anchor="middle" x="75" y="-219" font-family="sans-serif" font-size="10.00">DMI</text>
</g>
<!-- CORE -->
<g id="node5" class="node">
<title>CORE</title>
<path fill="#e0ffff" stroke="black" d="M103.5,-43C103.5,-43 26.5,-43 26.5,-43 20.5,-43 14.5,-37 14.5,-31 14.5,-31 14.5,-12 14.5,-12 14.5,-6 20.5,0 26.5,0 26.5,0 103.5,0 103.5,0 109.5,0 115.5,-6 115.5,-12 115.5,-12 115.5,-31 115.5,-31 115.5,-37 109.5,-43 103.5,-43"/>
<text text-anchor="middle" x="65" y="-17.8" font-family="sans-serif" font-size="14.00">RV64 Core</text>
</g>
<!-- DM&#45;&gt;CORE -->
<g id="edge4" class="edge">
<title>DM&#45;&gt;CORE</title>
<path fill="none" stroke="black" d="M65,-136.79C65,-136.79 65,-53.11 65,-53.11"/>
<polygon fill="black" stroke="black" points="68.5,-53.11 65,-43.11 61.5,-53.11 68.5,-53.11"/>
<text text-anchor="middle" x="88" y="-93" font-family="sans-serif" font-size="10.00">Debug</text>
<text text-anchor="middle" x="88" y="-82" font-family="sans-serif" font-size="10.00">Requests</text>
</g>
</g>
</svg>
