<?xml version="1.0" encoding="UTF-8" standalone="no"?>
<!DOCTYPE svg PUBLIC "-//W3C//DTD SVG 1.1//EN"
 "http://www.w3.org/Graphics/SVG/1.1/DTD/svg11.dtd">
<!-- Generated by graphviz version 2.43.0 (0)
 -->
<!-- Title: Bus_Architecture Pages: 1 -->
<svg width="1209pt" height="640pt"
 viewBox="0.00 0.00 1209.00 640.00" xmlns="http://www.w3.org/2000/svg" xmlns:xlink="http://www.w3.org/1999/xlink">
<g id="graph0" class="graph" transform="scale(1 1) rotate(0) translate(4 636)">
<title>Bus_Architecture</title>
<polygon fill="white" stroke="transparent" points="-4,4 -4,-636 1205,-636 1205,4 -4,4"/>
<!-- IFU -->
<g id="node1" class="node">
<title>IFU</title>
<path fill="#90ee90" stroke="black" d="M89,-439C89,-439 12,-439 12,-439 6,-439 0,-433 0,-427 0,-427 0,-401 0,-401 0,-395 6,-389 12,-389 12,-389 89,-389 89,-389 95,-389 101,-395 101,-401 101,-401 101,-427 101,-427 101,-433 95,-439 89,-439"/>
<text text-anchor="middle" x="50.5" y="-417.8" font-family="sans-serif" font-size="14.00">Instruction</text>
<text text-anchor="middle" x="50.5" y="-402.8" font-family="sans-serif" font-size="14.00">Fetch</text>
</g>
<!-- IWB -->
<g id="node3" class="node">
<title>IWB</title>
<path fill="#f5deb3" stroke="black" d="M440,-439C440,-439 370,-439 370,-439 364,-439 358,-433 358,-427 358,-427 358,-401 358,-401 358,-395 364,-389 370,-389 370,-389 440,-389 440,-389 446,-389 452,-395 452,-401 452,-401 452,-427 452,-427 452,-433 446,-439 440,-439"/>
<text text-anchor="middle" x="405" y="-417.8" font-family="sans-serif" font-size="14.00">I&#45;WB</text>
<text text-anchor="middle" x="405" y="-402.8" font-family="sans-serif" font-size="14.00">Master</text>
</g>
<!-- IFU&#45;&gt;IWB -->
<g id="edge1" class="edge">
<title>IFU&#45;&gt;IWB</title>
<path fill="none" stroke="#2e8b57" stroke-width="2.5" d="M101.29,-414C101.29,-414 347.98,-414 347.98,-414"/>
<polygon fill="#2e8b57" stroke="#2e8b57" stroke-width="2.5" points="347.98,-417.5 357.98,-414 347.98,-410.5 347.98,-417.5"/>
<text text-anchor="middle" x="229.5" y="-417.2" font-family="sans-serif" font-size="11.00"> &#160;&#160;req &#160;&#160;</text>
</g>
<!-- MEM -->
<g id="node2" class="node">
<title>MEM</title>
<path fill="#90ee90" stroke="black" d="M89,-245C89,-245 12,-245 12,-245 6,-245 0,-239 0,-233 0,-233 0,-207 0,-207 0,-201 6,-195 12,-195 12,-195 89,-195 89,-195 95,-195 101,-201 101,-207 101,-207 101,-233 101,-233 101,-239 95,-245 89,-245"/>
<text text-anchor="middle" x="50.5" y="-223.8" font-family="sans-serif" font-size="14.00">Memory</text>
<text text-anchor="middle" x="50.5" y="-208.8" font-family="sans-serif" font-size="14.00">Interface</text>
</g>
<!-- DWB -->
<g id="node4" class="node">
<title>DWB</title>
<path fill="#f5deb3" stroke="black" d="M440,-245C440,-245 370,-245 370,-245 364,-245 358,-239 358,-233 358,-233 358,-207 358,-207 358,-201 364,-195 370,-195 370,-195 440,-195 440,-195 446,-195 452,-201 452,-207 452,-207 452,-233 452,-233 452,-239 446,-245 440,-245"/>
<text text-anchor="middle" x="405" y="-223.8" font-family="sans-serif" font-size="14.00">D&#45;WB</text>
<text text-anchor="middle" x="405" y="-208.8" font-family="sans-serif" font-size="14.00">Master</text>
</g>
<!-- MEM&#45;&gt;DWB -->
<g id="edge2" class="edge">
<title>MEM&#45;&gt;DWB</title>
<path fill="none" stroke="#2e8b57" stroke-width="2.5" d="M101.29,-220C101.29,-220 347.98,-220 347.98,-220"/>
<polygon fill="#2e8b57" stroke="#2e8b57" stroke-width="2.5" points="347.98,-223.5 357.98,-220 347.98,-216.5 347.98,-223.5"/>
<text text-anchor="middle" x="229.5" y="-223.2" font-family="sans-serif" font-size="11.00"> &#160;&#160;req &#160;&#160;</text>
</g>
<!-- INTERCONNECT -->
<g id="node5" class="node">
<title>INTERCONNECT</title>
<path fill="#ffa500" stroke="black" d="M837,-352C837,-352 681,-352 681,-352 675,-352 669,-346 669,-340 669,-340 669,-292 669,-292 669,-286 675,-280 681,-280 681,-280 837,-280 837,-280 843,-280 849,-286 849,-292 849,-292 849,-340 849,-340 849,-346 843,-352 837,-352"/>
<text text-anchor="middle" x="759" y="-319.4" font-family="sans-serif" font-size="12.00">Wishbone</text>
<text text-anchor="middle" x="759" y="-306.4" font-family="sans-serif" font-size="12.00">Interconnect</text>
</g>
<!-- IWB&#45;&gt;INTERCONNECT -->
<g id="edge3" class="edge">
<title>IWB&#45;&gt;INTERCONNECT</title>
<path fill="none" stroke="black" stroke-width="3" d="M390,-378.66C390,-378.66 390,-328 390,-328 390,-328 658.73,-328 658.73,-328"/>
<polygon fill="black" stroke="black" stroke-width="3" points="386.5,-378.66 390,-388.66 393.5,-378.66 386.5,-378.66"/>
<polygon fill="black" stroke="black" stroke-width="3" points="658.73,-331.5 668.73,-328 658.73,-324.5 658.73,-331.5"/>
</g>
<!-- DWB&#45;&gt;INTERCONNECT -->
<g id="edge4" class="edge">
<title>DWB&#45;&gt;INTERCONNECT</title>
<path fill="none" stroke="black" stroke-width="3" d="M421,-255.2C421,-255.2 421,-304 421,-304 421,-304 658.87,-304 658.87,-304"/>
<polygon fill="black" stroke="black" stroke-width="3" points="424.5,-255.2 421,-245.2 417.5,-255.2 424.5,-255.2"/>
<polygon fill="black" stroke="black" stroke-width="3" points="658.87,-307.5 668.87,-304 658.87,-300.5 658.87,-307.5"/>
</g>
<!-- IMEM -->
<g id="node6" class="node">
<title>IMEM</title>
<path fill="#ffffe0" stroke="black" d="M1189,-632C1189,-632 1105,-632 1105,-632 1099,-632 1093,-626 1093,-620 1093,-620 1093,-594 1093,-594 1093,-588 1099,-582 1105,-582 1105,-582 1189,-582 1189,-582 1195,-582 1201,-588 1201,-594 1201,-594 1201,-620 1201,-620 1201,-626 1195,-632 1189,-632"/>
<text text-anchor="middle" x="1147" y="-610.8" font-family="sans-serif" font-size="14.00">Instruction</text>
<text text-anchor="middle" x="1147" y="-595.8" font-family="sans-serif" font-size="14.00">Memory</text>
</g>
<!-- INTERCONNECT&#45;&gt;IMEM -->
<g id="edge5" class="edge">
<title>INTERCONNECT&#45;&gt;IMEM</title>
<path fill="none" stroke="black" stroke-width="2" d="M759,-362.27C759,-362.27 759,-607 759,-607 759,-607 1082.64,-607 1082.64,-607"/>
<polygon fill="black" stroke="black" stroke-width="2" points="762.5,-362.27 759,-352.27 755.5,-362.27 762.5,-362.27"/>
<polygon fill="black" stroke="black" stroke-width="2" points="1082.64,-610.5 1092.64,-607 1082.64,-603.5 1082.64,-610.5"/>
<text text-anchor="middle" x="971" y="-610.2" font-family="sans-serif" font-size="11.00"> &#160;s0 &#160;</text>
</g>
<!-- DMEM -->
<g id="node7" class="node">
<title>DMEM</title>
<path fill="#ffffe0" stroke="black" d="M1189,-438C1189,-438 1105,-438 1105,-438 1099,-438 1093,-432 1093,-426 1093,-426 1093,-400 1093,-400 1093,-394 1099,-388 1105,-388 1105,-388 1189,-388 1189,-388 1195,-388 1201,-394 1201,-400 1201,-400 1201,-426 1201,-426 1201,-432 1195,-438 1189,-438"/>
<text text-anchor="middle" x="1147" y="-416.8" font-family="sans-serif" font-size="14.00">Data</text>
<text text-anchor="middle" x="1147" y="-401.8" font-family="sans-serif" font-size="14.00">Memory</text>
</g>
<!-- INTERCONNECT&#45;&gt;DMEM -->
<g id="edge6" class="edge">
<title>INTERCONNECT&#45;&gt;DMEM</title>
<path fill="none" stroke="black" stroke-width="2" d="M859.1,-328C859.1,-328 1165,-328 1165,-328 1165,-328 1165,-377.96 1165,-377.96"/>
<polygon fill="black" stroke="black" stroke-width="2" points="859.1,-324.5 849.1,-328 859.1,-331.5 859.1,-324.5"/>
<polygon fill="black" stroke="black" stroke-width="2" points="1161.5,-377.96 1165,-387.96 1168.5,-377.96 1161.5,-377.96"/>
<text text-anchor="middle" x="971" y="-416.2" font-family="sans-serif" font-size="11.00"> &#160;s1 &#160;</text>
</g>
<!-- PERIPH -->
<g id="node8" class="node">
<title>PERIPH</title>
<path fill="#d3d3d3" stroke="black" d="M1189,-244C1189,-244 1105,-244 1105,-244 1099,-244 1093,-238 1093,-232 1093,-232 1093,-206 1093,-206 1093,-200 1099,-194 1105,-194 1105,-194 1189,-194 1189,-194 1195,-194 1201,-200 1201,-206 1201,-206 1201,-232 1201,-232 1201,-238 1195,-244 1189,-244"/>
<text text-anchor="middle" x="1147" y="-222.8" font-family="sans-serif" font-size="14.00">Peripheral</text>
<text text-anchor="middle" x="1147" y="-207.8" font-family="sans-serif" font-size="14.00">Bus</text>
</g>
<!-- INTERCONNECT&#45;&gt;PERIPH -->
<g id="edge7" class="edge">
<title>INTERCONNECT&#45;&gt;PERIPH</title>
<path fill="none" stroke="black" stroke-width="2" d="M859.04,-304C859.04,-304 1129,-304 1129,-304 1129,-304 1129,-254.04 1129,-254.04"/>
<polygon fill="black" stroke="black" stroke-width="2" points="859.04,-300.5 849.04,-304 859.04,-307.5 859.04,-300.5"/>
<polygon fill="black" stroke="black" stroke-width="2" points="1132.5,-254.04 1129,-244.04 1125.5,-254.04 1132.5,-254.04"/>
<text text-anchor="middle" x="971" y="-222.2" font-family="sans-serif" font-size="11.00"> &#160;s2 &#160;</text>
</g>
<!-- EXT -->
<g id="node9" class="node">
<title>EXT</title>
<path fill="#e0ffff" stroke="black" d="M1189,-50C1189,-50 1105,-50 1105,-50 1099,-50 1093,-44 1093,-38 1093,-38 1093,-12 1093,-12 1093,-6 1099,0 1105,0 1105,0 1189,0 1189,0 1195,0 1201,-6 1201,-12 1201,-12 1201,-38 1201,-38 1201,-44 1195,-50 1189,-50"/>
<text text-anchor="middle" x="1147" y="-28.8" font-family="sans-serif" font-size="14.00">External</text>
<text text-anchor="middle" x="1147" y="-13.8" font-family="sans-serif" font-size="14.00">Memory</text>
</g>
<!-- INTERCONNECT&#45;&gt;EXT -->
<g id="edge8" class="edge">
<title>INTERCONNECT&#45;&gt;EXT</title>
<path fill="none" stroke="black" stroke-width="2" d="M759,-269.73C759,-269.73 759,-25 759,-25 759,-25 1082.64,-25 1082.64,-25"/>
<polygon fill="black" stroke="black" stroke-width="2" points="755.5,-269.73 759,-279.73 762.5,-269.73 755.5,-269.73"/>
<polygon fill="black" stroke="black" stroke-width="2" points="1082.64,-28.5 1092.64,-25 1082.64,-21.5 1082.64,-28.5"/>
<text text-anchor="middle" x="971" y="-28.2" font-family="sans-serif" font-size="11.00"> &#160;s3 &#160;</text>
</g>
</g>
</svg>
