<?xml version="1.0" encoding="UTF-8" standalone="no"?>
<!DOCTYPE svg PUBLIC "-//W3C//DTD SVG 1.1//EN"
 "http://www.w3.org/Graphics/SVG/1.1/DTD/svg11.dtd">
<!-- Generated by graphviz version 2.43.0 (0)
 -->
<!-- Title: IDU Pages: 1 -->
<svg width="555pt" height="622pt"
 viewBox="0.00 0.00 555.00 622.00" xmlns="http://www.w3.org/2000/svg" xmlns:xlink="http://www.w3.org/1999/xlink">
<g id="graph0" class="graph" transform="scale(1 1) rotate(0) translate(4 618)">
<title>IDU</title>
<polygon fill="white" stroke="transparent" points="-4,4 -4,-618 551,-618 551,4 -4,4"/>
<g id="clust1" class="cluster">
<title>cluster_idu</title>
<path fill="#e0f0ff" stroke="#4682b4" d="M20,-217C20,-217 380,-217 380,-217 386,-217 392,-223 392,-229 392,-229 392,-524 392,-524 392,-530 386,-536 380,-536 380,-536 20,-536 20,-536 14,-536 8,-530 8,-524 8,-524 8,-229 8,-229 8,-223 14,-217 20,-217"/>
<text text-anchor="middle" x="200" y="-520.8" font-family="Arial Bold" font-size="14.00">Instruction Decode Unit</text>
</g>
<!-- INSTR -->
<g id="node1" class="node">
<title>INSTR</title>
<path fill="#ffffe0" stroke="black" d="M280,-614C280,-614 210,-614 210,-614 204,-614 198,-608 198,-602 198,-602 198,-590 198,-590 198,-584 204,-578 210,-578 210,-578 280,-578 280,-578 286,-578 292,-584 292,-590 292,-590 292,-602 292,-602 292,-608 286,-614 280,-614"/>
<text text-anchor="middle" x="245" y="-599.8" font-family="sans-serif" font-size="14.00">Instruction</text>
<text text-anchor="middle" x="245" y="-584.8" font-family="sans-serif" font-size="14.00">from IFU</text>
</g>
<!-- C_EXP -->
<g id="node3" class="node">
<title>C_EXP</title>
<path fill="#90ee90" stroke="black" d="M280,-505C280,-505 210,-505 210,-505 204,-505 198,-499 198,-493 198,-493 198,-481 198,-481 198,-475 204,-469 210,-469 210,-469 280,-469 280,-469 286,-469 292,-475 292,-481 292,-481 292,-493 292,-493 292,-499 286,-505 280,-505"/>
<text text-anchor="middle" x="245" y="-490.8" font-family="sans-serif" font-size="14.00">Compressed</text>
<text text-anchor="middle" x="245" y="-475.8" font-family="sans-serif" font-size="14.00">Expansion</text>
</g>
<!-- INSTR&#45;&gt;C_EXP -->
<g id="edge1" class="edge">
<title>INSTR&#45;&gt;C_EXP</title>
<path fill="none" stroke="black" d="M245,-577.51C245,-577.51 245,-515.22 245,-515.22"/>
<polygon fill="black" stroke="black" points="248.5,-515.22 245,-505.22 241.5,-515.22 248.5,-515.22"/>
</g>
<!-- PC_IN -->
<g id="node2" class="node">
<title>PC_IN</title>
<path fill="#ffffe0" stroke="black" d="M535,-139C535,-139 487,-139 487,-139 481,-139 475,-133 475,-127 475,-127 475,-115 475,-115 475,-109 481,-103 487,-103 487,-103 535,-103 535,-103 541,-103 547,-109 547,-115 547,-115 547,-127 547,-127 547,-133 541,-139 535,-139"/>
<text text-anchor="middle" x="511" y="-124.8" font-family="sans-serif" font-size="14.00">PC</text>
<text text-anchor="middle" x="511" y="-109.8" font-family="sans-serif" font-size="14.00">from IFU</text>
</g>
<!-- OPS_OUT -->
<g id="node11" class="node">
<title>OPS_OUT</title>
<path fill="#d3d3d3" stroke="black" d="M423.5,-36C423.5,-36 346.5,-36 346.5,-36 340.5,-36 334.5,-30 334.5,-24 334.5,-24 334.5,-12 334.5,-12 334.5,-6 340.5,0 346.5,0 346.5,0 423.5,0 423.5,0 429.5,0 435.5,-6 435.5,-12 435.5,-12 435.5,-24 435.5,-24 435.5,-30 429.5,-36 423.5,-36"/>
<text text-anchor="middle" x="385" y="-21.8" font-family="sans-serif" font-size="14.00">Operands</text>
<text text-anchor="middle" x="385" y="-6.8" font-family="sans-serif" font-size="14.00">to EXU/LSU</text>
</g>
<!-- PC_IN&#45;&gt;OPS_OUT -->
<g id="edge10" class="edge">
<title>PC_IN&#45;&gt;OPS_OUT</title>
<path fill="none" stroke="black" d="M511,-102.59C511,-72.96 511,-18 511,-18 511,-18 445.52,-18 445.52,-18"/>
<polygon fill="black" stroke="black" points="445.52,-14.5 435.52,-18 445.52,-21.5 445.52,-14.5"/>
</g>
<!-- DECODER -->
<g id="node4" class="node">
<title>DECODER</title>
<path fill="#e0ffff" stroke="black" d="M280,-383C280,-383 210,-383 210,-383 204,-383 198,-377 198,-371 198,-371 198,-359 198,-359 198,-353 204,-347 210,-347 210,-347 280,-347 280,-347 286,-347 292,-353 292,-359 292,-359 292,-371 292,-371 292,-377 286,-383 280,-383"/>
<text text-anchor="middle" x="245" y="-368.8" font-family="sans-serif" font-size="14.00">Instruction</text>
<text text-anchor="middle" x="245" y="-353.8" font-family="sans-serif" font-size="14.00">Decoder</text>
</g>
<!-- C_EXP&#45;&gt;DECODER -->
<g id="edge2" class="edge">
<title>C_EXP&#45;&gt;DECODER</title>
<path fill="none" stroke="black" d="M245,-469C245,-469 245,-393.08 245,-393.08"/>
<polygon fill="black" stroke="black" points="248.5,-393.08 245,-383.08 241.5,-393.08 248.5,-393.08"/>
<text text-anchor="middle" x="259" y="-428.8" font-family="sans-serif" font-size="9.00">32&#45;bit</text>
<text text-anchor="middle" x="259" y="-418.8" font-family="sans-serif" font-size="9.00">instr</text>
</g>
<!-- IMM_GEN -->
<g id="node5" class="node">
<title>IMM_GEN</title>
<path fill="#f5deb3" stroke="black" d="M98,-261C98,-261 28,-261 28,-261 22,-261 16,-255 16,-249 16,-249 16,-237 16,-237 16,-231 22,-225 28,-225 28,-225 98,-225 98,-225 104,-225 110,-231 110,-237 110,-237 110,-249 110,-249 110,-255 104,-261 98,-261"/>
<text text-anchor="middle" x="63" y="-246.8" font-family="sans-serif" font-size="14.00">Immediate</text>
<text text-anchor="middle" x="63" y="-231.8" font-family="sans-serif" font-size="14.00">Generator</text>
</g>
<!-- DECODER&#45;&gt;IMM_GEN -->
<g id="edge4" class="edge">
<title>DECODER&#45;&gt;IMM_GEN</title>
<path fill="none" stroke="black" d="M197.66,-365C143.73,-365 63,-365 63,-365 63,-365 63,-271 63,-271"/>
<polygon fill="black" stroke="black" points="66.5,-271 63,-261 59.5,-271 66.5,-271"/>
</g>
<!-- CTRL_GEN -->
<g id="node6" class="node">
<title>CTRL_GEN</title>
<path fill="#ffa500" stroke="black" d="M235,-261C235,-261 165,-261 165,-261 159,-261 153,-255 153,-249 153,-249 153,-237 153,-237 153,-231 159,-225 165,-225 165,-225 235,-225 235,-225 241,-225 247,-231 247,-237 247,-237 247,-249 247,-249 247,-255 241,-261 235,-261"/>
<text text-anchor="middle" x="200" y="-246.8" font-family="sans-serif" font-size="14.00">Control</text>
<text text-anchor="middle" x="200" y="-231.8" font-family="sans-serif" font-size="14.00">Signal Gen</text>
</g>
<!-- DECODER&#45;&gt;CTRL_GEN -->
<g id="edge3" class="edge">
<title>DECODER&#45;&gt;CTRL_GEN</title>
<path fill="none" stroke="black" d="M222.5,-347C222.5,-347 222.5,-271.08 222.5,-271.08"/>
<polygon fill="black" stroke="black" points="226,-271.08 222.5,-261.08 219,-271.08 226,-271.08"/>
</g>
<!-- HAZARD -->
<g id="node7" class="node">
<title>HAZARD</title>
<path fill="#ffb6c1" stroke="black" d="M372,-261C372,-261 302,-261 302,-261 296,-261 290,-255 290,-249 290,-249 290,-237 290,-237 290,-231 296,-225 302,-225 302,-225 372,-225 372,-225 378,-225 384,-231 384,-237 384,-237 384,-249 384,-249 384,-255 378,-261 372,-261"/>
<text text-anchor="middle" x="337" y="-246.8" font-family="sans-serif" font-size="14.00">Hazard</text>
<text text-anchor="middle" x="337" y="-231.8" font-family="sans-serif" font-size="14.00">Detection</text>
</g>
<!-- DECODER&#45;&gt;HAZARD -->
<g id="edge11" class="edge">
<title>DECODER&#45;&gt;HAZARD</title>
<path fill="none" stroke="black" d="M283.5,-346.93C283.5,-311.65 283.5,-237 283.5,-237 283.5,-237 284.11,-237 284.11,-237"/>
<polygon fill="black" stroke="black" points="279.64,-240.5 289.64,-237 279.64,-233.5 279.64,-240.5"/>
<text text-anchor="middle" x="337.5" y="-301.8" font-family="sans-serif" font-size="9.00">rs1, rs2, rd</text>
</g>
<!-- RF -->
<g id="node8" class="node">
<title>RF</title>
<path fill="#90ee90" stroke="black" d="M516.5,-261C516.5,-261 439.5,-261 439.5,-261 433.5,-261 427.5,-255 427.5,-249 427.5,-249 427.5,-237 427.5,-237 427.5,-231 433.5,-225 439.5,-225 439.5,-225 516.5,-225 516.5,-225 522.5,-225 528.5,-231 528.5,-237 528.5,-237 528.5,-249 528.5,-249 528.5,-255 522.5,-261 516.5,-261"/>
<text text-anchor="middle" x="478" y="-246.8" font-family="sans-serif" font-size="14.00">Register File</text>
<text text-anchor="middle" x="478" y="-231.8" font-family="sans-serif" font-size="14.00">Read Ports</text>
</g>
<!-- DECODER&#45;&gt;RF -->
<g id="edge5" class="edge">
<title>DECODER&#45;&gt;RF</title>
<path fill="none" stroke="black" d="M292.15,-365C360.23,-365 478,-365 478,-365 478,-365 478,-271 478,-271"/>
<polygon fill="black" stroke="black" points="481.5,-271 478,-261 474.5,-271 481.5,-271"/>
<text text-anchor="middle" x="473" y="-306.8" font-family="sans-serif" font-size="9.00">rs1, rs2</text>
<text text-anchor="middle" x="473" y="-296.8" font-family="sans-serif" font-size="9.00">address</text>
</g>
<!-- IMM_GEN&#45;&gt;OPS_OUT -->
<g id="edge7" class="edge">
<title>IMM_GEN&#45;&gt;OPS_OUT</title>
<path fill="none" stroke="black" d="M63,-224.97C63,-171.58 63,-18 63,-18 63,-18 324.33,-18 324.33,-18"/>
<polygon fill="black" stroke="black" points="324.33,-21.5 334.33,-18 324.33,-14.5 324.33,-21.5"/>
</g>
<!-- CTRL_OUT -->
<g id="node10" class="node">
<title>CTRL_OUT</title>
<path fill="#d3d3d3" stroke="black" d="M265,-139C265,-139 203,-139 203,-139 197,-139 191,-133 191,-127 191,-127 191,-115 191,-115 191,-109 197,-103 203,-103 203,-103 265,-103 265,-103 271,-103 277,-109 277,-115 277,-115 277,-127 277,-127 277,-133 271,-139 265,-139"/>
<text text-anchor="middle" x="234" y="-124.8" font-family="sans-serif" font-size="14.00">Control</text>
<text text-anchor="middle" x="234" y="-109.8" font-family="sans-serif" font-size="14.00">Signals</text>
</g>
<!-- CTRL_GEN&#45;&gt;CTRL_OUT -->
<g id="edge9" class="edge">
<title>CTRL_GEN&#45;&gt;CTRL_OUT</title>
<path fill="none" stroke="black" d="M219,-225C219,-225 219,-149.08 219,-149.08"/>
<polygon fill="black" stroke="black" points="222.5,-149.08 219,-139.08 215.5,-149.08 222.5,-149.08"/>
</g>
<!-- HAZARD&#45;&gt;CTRL_OUT -->
<g id="edge12" class="edge">
<title>HAZARD&#45;&gt;CTRL_OUT</title>
<path fill="none" stroke="black" d="M289.93,-249C274.86,-249 262,-249 262,-249 262,-249 262,-149.07 262,-149.07"/>
<polygon fill="black" stroke="black" points="265.5,-149.07 262,-139.07 258.5,-149.07 265.5,-149.07"/>
<text text-anchor="middle" x="326.5" y="-179.8" font-family="sans-serif" font-size="9.00">stall</text>
</g>
<!-- FWD -->
<g id="node9" class="node">
<title>FWD</title>
<path fill="#ffffe0" stroke="black" d="M420,-139C420,-139 350,-139 350,-139 344,-139 338,-133 338,-127 338,-127 338,-115 338,-115 338,-109 344,-103 350,-103 350,-103 420,-103 420,-103 426,-103 432,-109 432,-115 432,-115 432,-127 432,-127 432,-133 426,-139 420,-139"/>
<text text-anchor="middle" x="385" y="-124.8" font-family="sans-serif" font-size="14.00">Forwarding</text>
<text text-anchor="middle" x="385" y="-109.8" font-family="sans-serif" font-size="14.00">Unit</text>
</g>
<!-- RF&#45;&gt;FWD -->
<g id="edge6" class="edge">
<title>RF&#45;&gt;FWD</title>
<path fill="none" stroke="black" d="M427.43,-243C415.29,-243 405.75,-243 405.75,-243 405.75,-243 405.75,-149 405.75,-149"/>
<polygon fill="black" stroke="black" points="409.25,-149 405.75,-139 402.25,-149 409.25,-149"/>
<text text-anchor="middle" x="415.5" y="-184.8" font-family="sans-serif" font-size="9.00">register</text>
<text text-anchor="middle" x="415.5" y="-174.8" font-family="sans-serif" font-size="9.00">data</text>
</g>
<!-- FWD&#45;&gt;OPS_OUT -->
<g id="edge8" class="edge">
<title>FWD&#45;&gt;OPS_OUT</title>
<path fill="none" stroke="black" d="M385,-102.59C385,-102.59 385,-46.25 385,-46.25"/>
<polygon fill="black" stroke="black" points="388.5,-46.25 385,-36.25 381.5,-46.25 388.5,-46.25"/>
</g>
</g>
</svg>
