<?xml version="1.0" encoding="UTF-8" standalone="no"?>
<!DOCTYPE svg PUBLIC "-//W3C//DTD SVG 1.1//EN"
 "http://www.w3.org/Graphics/SVG/1.1/DTD/svg11.dtd">
<!-- Generated by graphviz version 2.43.0 (0)
 -->
<!-- Title: RV64_Core Pages: 1 -->
<svg width="1125pt" height="1210pt"
 viewBox="0.00 0.00 1124.50 1210.00" xmlns="http://www.w3.org/2000/svg" xmlns:xlink="http://www.w3.org/1999/xlink">
<g id="graph0" class="graph" transform="scale(1 1) rotate(0) translate(4 1206)">
<title>RV64_Core</title>
<polygon fill="white" stroke="transparent" points="-4,4 -4,-1206 1120.5,-1206 1120.5,4 -4,4"/>
<!-- DBG -->
<g id="node1" class="node">
<title>DBG</title>
<path fill="#ffa500" stroke="black" d="M412.5,-1202C412.5,-1202 350.5,-1202 350.5,-1202 344.5,-1202 338.5,-1196 338.5,-1190 338.5,-1190 338.5,-1164 338.5,-1164 338.5,-1158 344.5,-1152 350.5,-1152 350.5,-1152 412.5,-1152 412.5,-1152 418.5,-1152 424.5,-1158 424.5,-1164 424.5,-1164 424.5,-1190 424.5,-1190 424.5,-1196 418.5,-1202 412.5,-1202"/>
<text text-anchor="middle" x="381.5" y="-1173.3" font-family="sans-serif" font-size="14.00">Debug</text>
</g>
<!-- CTRL -->
<g id="node4" class="node">
<title>CTRL</title>
<path fill="#d3d3d3" stroke="black" d="M416.5,-1010C416.5,-1010 346.5,-1010 346.5,-1010 340.5,-1010 334.5,-1004 334.5,-998 334.5,-998 334.5,-972 334.5,-972 334.5,-966 340.5,-960 346.5,-960 346.5,-960 416.5,-960 416.5,-960 422.5,-960 428.5,-966 428.5,-972 428.5,-972 428.5,-998 428.5,-998 428.5,-1004 422.5,-1010 416.5,-1010"/>
<text text-anchor="middle" x="381.5" y="-988.8" font-family="sans-serif" font-size="14.00">Control</text>
<text text-anchor="middle" x="381.5" y="-973.8" font-family="sans-serif" font-size="14.00">Unit</text>
</g>
<!-- DBG&#45;&gt;CTRL -->
<g id="edge16" class="edge">
<title>DBG&#45;&gt;CTRL</title>
<path fill="none" stroke="#4169e1" stroke-dasharray="5,2" d="M381.5,-1151.9C381.5,-1151.9 381.5,-1020.11 381.5,-1020.11"/>
<polygon fill="#4169e1" stroke="#4169e1" points="385,-1020.11 381.5,-1010.11 378,-1020.11 385,-1020.11"/>
<text text-anchor="middle" x="396" y="-1078.2" font-family="sans-serif" font-size="11.00"> halt </text>
</g>
<!-- JTAG -->
<g id="node2" class="node">
<title>JTAG</title>
<path fill="#ffd700" stroke="black" d="M67,-1202C67,-1202 12,-1202 12,-1202 6,-1202 0,-1196 0,-1190 0,-1190 0,-1164 0,-1164 0,-1158 6,-1152 12,-1152 12,-1152 67,-1152 67,-1152 73,-1152 79,-1158 79,-1164 79,-1164 79,-1190 79,-1190 79,-1196 73,-1202 67,-1202"/>
<text text-anchor="middle" x="39.5" y="-1173.3" font-family="sans-serif" font-size="14.00">JTAG</text>
</g>
<!-- JTAG&#45;&gt;DBG -->
<g id="edge15" class="edge">
<title>JTAG&#45;&gt;DBG</title>
<path fill="none" stroke="black" stroke-width="1.5" d="M79.07,-1177C79.07,-1177 328.27,-1177 328.27,-1177"/>
<polygon fill="black" stroke="black" stroke-width="1.5" points="328.27,-1180.5 338.27,-1177 328.27,-1173.5 328.27,-1180.5"/>
</g>
<!-- IFU -->
<g id="node3" class="node">
<title>IFU</title>
<path fill="#90ee90" stroke="black" d="M703,-1010C703,-1010 626,-1010 626,-1010 620,-1010 614,-1004 614,-998 614,-998 614,-972 614,-972 614,-966 620,-960 626,-960 626,-960 703,-960 703,-960 709,-960 715,-966 715,-972 715,-972 715,-998 715,-998 715,-1004 709,-1010 703,-1010"/>
<text text-anchor="middle" x="664.5" y="-988.8" font-family="sans-serif" font-size="14.00">Instruction</text>
<text text-anchor="middle" x="664.5" y="-973.8" font-family="sans-serif" font-size="14.00">Fetch</text>
</g>
<!-- DEC -->
<g id="node5" class="node">
<title>DEC</title>
<path fill="#90ee90" stroke="black" d="M594,-818C594,-818 517,-818 517,-818 511,-818 505,-812 505,-806 505,-806 505,-780 505,-780 505,-774 511,-768 517,-768 517,-768 594,-768 594,-768 600,-768 606,-774 606,-780 606,-780 606,-806 606,-806 606,-812 600,-818 594,-818"/>
<text text-anchor="middle" x="555.5" y="-789.3" font-family="sans-serif" font-size="14.00">Decoder</text>
</g>
<!-- IFU&#45;&gt;DEC -->
<g id="edge1" class="edge">
<title>IFU&#45;&gt;DEC</title>
<path fill="none" stroke="#2e8b57" stroke-width="2.5" d="M633.75,-959.9C633.75,-907.86 633.75,-793 633.75,-793 633.75,-793 616.38,-793 616.38,-793"/>
<polygon fill="#2e8b57" stroke="#2e8b57" stroke-width="2.5" points="616.38,-789.5 606.38,-793 616.38,-796.5 616.38,-789.5"/>
<text text-anchor="middle" x="646.5" y="-886.2" font-family="sans-serif" font-size="11.00"> &#160;instr &#160;</text>
</g>
<!-- IBUS -->
<g id="node12" class="node">
<title>IBUS</title>
<path fill="#f5deb3" stroke="black" d="M1104.5,-50C1104.5,-50 1020.5,-50 1020.5,-50 1014.5,-50 1008.5,-44 1008.5,-38 1008.5,-38 1008.5,-12 1008.5,-12 1008.5,-6 1014.5,0 1020.5,0 1020.5,0 1104.5,0 1104.5,0 1110.5,0 1116.5,-6 1116.5,-12 1116.5,-12 1116.5,-38 1116.5,-38 1116.5,-44 1110.5,-50 1104.5,-50"/>
<text text-anchor="middle" x="1062.5" y="-21.3" font-family="sans-serif" font-size="14.00">I&#45;Wishbone</text>
</g>
<!-- IFU&#45;&gt;IBUS -->
<g id="edge13" class="edge">
<title>IFU&#45;&gt;IBUS</title>
<path fill="none" stroke="black" stroke-width="2" d="M684.25,-959.82C684.25,-808.35 684.25,-25 684.25,-25 684.25,-25 998.31,-25 998.31,-25"/>
<polygon fill="black" stroke="black" stroke-width="2" points="998.31,-28.5 1008.31,-25 998.31,-21.5 998.31,-28.5"/>
<text text-anchor="middle" x="1079.5" y="-502.2" font-family="sans-serif" font-size="11.00"> &#160;req &#160;</text>
</g>
<!-- CTRL&#45;&gt;DEC -->
<g id="edge10" class="edge">
<title>CTRL&#45;&gt;DEC</title>
<path fill="none" stroke="#808080" stroke-dasharray="5,2" d="M406,-959.9C406,-907.86 406,-793 406,-793 406,-793 494.89,-793 494.89,-793"/>
<polygon fill="#808080" stroke="#808080" points="494.89,-796.5 504.89,-793 494.89,-789.5 494.89,-796.5"/>
</g>
<!-- RF -->
<g id="node6" class="node">
<title>RF</title>
<path fill="#ffb6c1" stroke="black" d="M641.5,-626C641.5,-626 557.5,-626 557.5,-626 551.5,-626 545.5,-620 545.5,-614 545.5,-614 545.5,-588 545.5,-588 545.5,-582 551.5,-576 557.5,-576 557.5,-576 641.5,-576 641.5,-576 647.5,-576 653.5,-582 653.5,-588 653.5,-588 653.5,-614 653.5,-614 653.5,-620 647.5,-626 641.5,-626"/>
<text text-anchor="middle" x="599.5" y="-604.8" font-family="sans-serif" font-size="14.00">Register File</text>
<text text-anchor="middle" x="599.5" y="-589.8" font-family="sans-serif" font-size="14.00">32x64&#45;bit</text>
</g>
<!-- DEC&#45;&gt;RF -->
<g id="edge2" class="edge">
<title>DEC&#45;&gt;RF</title>
<path fill="none" stroke="black" stroke-width="2" d="M575.75,-767.9C575.75,-767.9 575.75,-636.11 575.75,-636.11"/>
<polygon fill="black" stroke="black" stroke-width="2" points="579.25,-636.11 575.75,-626.11 572.25,-636.11 579.25,-636.11"/>
<text text-anchor="middle" x="652.5" y="-694.2" font-family="sans-serif" font-size="11.00"> &#160;addr &#160;</text>
</g>
<!-- CSR -->
<g id="node7" class="node">
<title>CSR</title>
<path fill="#e0ffff" stroke="black" d="M371.5,-626C371.5,-626 301.5,-626 301.5,-626 295.5,-626 289.5,-620 289.5,-614 289.5,-614 289.5,-588 289.5,-588 289.5,-582 295.5,-576 301.5,-576 301.5,-576 371.5,-576 371.5,-576 377.5,-576 383.5,-582 383.5,-588 383.5,-588 383.5,-614 383.5,-614 383.5,-620 377.5,-626 371.5,-626"/>
<text text-anchor="middle" x="336.5" y="-597.3" font-family="sans-serif" font-size="14.00">CSR Unit</text>
</g>
<!-- DEC&#45;&gt;CSR -->
<g id="edge12" class="edge">
<title>DEC&#45;&gt;CSR</title>
<path fill="none" stroke="#9370db" stroke-dasharray="1,5" d="M525.25,-767.9C525.25,-715.86 525.25,-601 525.25,-601 525.25,-601 393.64,-601 393.64,-601"/>
<polygon fill="#9370db" stroke="#9370db" points="393.64,-597.5 383.64,-601 393.64,-604.5 393.64,-597.5"/>
<text text-anchor="middle" x="485" y="-694.2" font-family="sans-serif" font-size="11.00"> csr </text>
</g>
<!-- ALU -->
<g id="node8" class="node">
<title>ALU</title>
<path fill="#ffffe0" stroke="black" d="M854.5,-434C854.5,-434 784.5,-434 784.5,-434 778.5,-434 772.5,-428 772.5,-422 772.5,-422 772.5,-396 772.5,-396 772.5,-390 778.5,-384 784.5,-384 784.5,-384 854.5,-384 854.5,-384 860.5,-384 866.5,-390 866.5,-396 866.5,-396 866.5,-422 866.5,-422 866.5,-428 860.5,-434 854.5,-434"/>
<text text-anchor="middle" x="819.5" y="-405.3" font-family="sans-serif" font-size="14.00">ALU</text>
</g>
<!-- RF&#45;&gt;ALU -->
<g id="edge3" class="edge">
<title>RF&#45;&gt;ALU</title>
<path fill="none" stroke="black" d="M611.5,-575.65C611.5,-522.44 611.5,-404 611.5,-404 611.5,-404 762.3,-404 762.3,-404"/>
<polygon fill="black" stroke="black" points="762.3,-407.5 772.3,-404 762.3,-400.5 762.3,-407.5"/>
<text text-anchor="middle" x="827" y="-502.2" font-family="sans-serif" font-size="11.00"> &#160;a,b &#160;</text>
</g>
<!-- MUL -->
<g id="node9" class="node">
<title>MUL</title>
<path fill="#ffffe0" stroke="black" d="M103.5,-434C103.5,-434 33.5,-434 33.5,-434 27.5,-434 21.5,-428 21.5,-422 21.5,-422 21.5,-396 21.5,-396 21.5,-390 27.5,-384 33.5,-384 33.5,-384 103.5,-384 103.5,-384 109.5,-384 115.5,-390 115.5,-396 115.5,-396 115.5,-422 115.5,-422 115.5,-428 109.5,-434 103.5,-434"/>
<text text-anchor="middle" x="68.5" y="-405.3" font-family="sans-serif" font-size="14.00">Multiplier</text>
</g>
<!-- RF&#45;&gt;MUL -->
<g id="edge4" class="edge">
<title>RF&#45;&gt;MUL</title>
<path fill="none" stroke="black" d="M549.6,-575.78C549.6,-547.33 549.6,-505 549.6,-505 549.6,-505 97.25,-505 97.25,-505 97.25,-505 97.25,-444.22 97.25,-444.22"/>
<polygon fill="black" stroke="black" points="100.75,-444.22 97.25,-434.22 93.75,-444.22 100.75,-444.22"/>
<text text-anchor="middle" x="214" y="-502.2" font-family="sans-serif" font-size="11.00"> &#160;a,b &#160;</text>
</g>
<!-- DIV -->
<g id="node10" class="node">
<title>DIV</title>
<path fill="#ffffe0" stroke="black" d="M327.5,-434C327.5,-434 257.5,-434 257.5,-434 251.5,-434 245.5,-428 245.5,-422 245.5,-422 245.5,-396 245.5,-396 245.5,-390 251.5,-384 257.5,-384 257.5,-384 327.5,-384 327.5,-384 333.5,-384 339.5,-390 339.5,-396 339.5,-396 339.5,-422 339.5,-422 339.5,-428 333.5,-434 327.5,-434"/>
<text text-anchor="middle" x="292.5" y="-405.3" font-family="sans-serif" font-size="14.00">Divider</text>
</g>
<!-- RF&#45;&gt;DIV -->
<g id="edge5" class="edge">
<title>RF&#45;&gt;DIV</title>
<path fill="none" stroke="black" d="M553.7,-575.64C553.7,-526.7 553.7,-424 553.7,-424 553.7,-424 349.8,-424 349.8,-424"/>
<polygon fill="black" stroke="black" points="349.8,-420.5 339.8,-424 349.8,-427.5 349.8,-420.5"/>
<text text-anchor="middle" x="410" y="-502.2" font-family="sans-serif" font-size="11.00"> &#160;a,b &#160;</text>
</g>
<!-- CSR&#45;&gt;CTRL -->
<g id="edge11" class="edge">
<title>CSR&#45;&gt;CTRL</title>
<path fill="none" stroke="#dc143c" stroke-width="1.5" stroke-dasharray="5,2" d="M359,-626.2C359,-626.2 359,-949.71 359,-949.71"/>
<polygon fill="#dc143c" stroke="#dc143c" stroke-width="1.5" points="355.5,-949.71 359,-959.71 362.5,-949.71 355.5,-949.71"/>
<text text-anchor="middle" x="287" y="-790.2" font-family="sans-serif" font-size="11.00"> trap </text>
</g>
<!-- MEM -->
<g id="node11" class="node">
<title>MEM</title>
<path fill="#e0ffff" stroke="black" d="M554,-242C554,-242 477,-242 477,-242 471,-242 465,-236 465,-230 465,-230 465,-204 465,-204 465,-198 471,-192 477,-192 477,-192 554,-192 554,-192 560,-192 566,-198 566,-204 566,-204 566,-230 566,-230 566,-236 560,-242 554,-242"/>
<text text-anchor="middle" x="515.5" y="-220.8" font-family="sans-serif" font-size="14.00">Memory</text>
<text text-anchor="middle" x="515.5" y="-205.8" font-family="sans-serif" font-size="14.00">Interface</text>
</g>
<!-- ALU&#45;&gt;MEM -->
<g id="edge6" class="edge">
<title>ALU&#45;&gt;MEM</title>
<path fill="none" stroke="black" d="M772.25,-394C697.89,-394 561.9,-394 561.9,-394 561.9,-394 561.9,-252.36 561.9,-252.36"/>
<polygon fill="black" stroke="black" points="565.4,-252.36 561.9,-242.36 558.4,-252.36 565.4,-252.36"/>
<text text-anchor="middle" x="827" y="-310.2" font-family="sans-serif" font-size="11.00"> &#160;res &#160;</text>
</g>
<!-- MUL&#45;&gt;MEM -->
<g id="edge7" class="edge">
<title>MUL&#45;&gt;MEM</title>
<path fill="none" stroke="black" d="M68.5,-383.9C68.5,-331.86 68.5,-217 68.5,-217 68.5,-217 454.66,-217 454.66,-217"/>
<polygon fill="black" stroke="black" points="454.66,-220.5 464.66,-217 454.66,-213.5 454.66,-220.5"/>
<text text-anchor="middle" x="150" y="-310.2" font-family="sans-serif" font-size="11.00"> &#160;res &#160;</text>
</g>
<!-- DIV&#45;&gt;MEM -->
<g id="edge8" class="edge">
<title>DIV&#45;&gt;MEM</title>
<path fill="none" stroke="black" d="M339.59,-414C396.58,-414 485,-414 485,-414 485,-414 485,-252.35 485,-252.35"/>
<polygon fill="black" stroke="black" points="488.5,-252.35 485,-242.35 481.5,-252.35 488.5,-252.35"/>
<text text-anchor="middle" x="447" y="-310.2" font-family="sans-serif" font-size="11.00"> &#160;res &#160;</text>
</g>
<!-- MEM&#45;&gt;RF -->
<g id="edge9" class="edge">
<title>MEM&#45;&gt;RF</title>
<path fill="none" stroke="#2e8b57" stroke-width="2.5" d="M557.8,-252.2C557.8,-252.2 557.8,-575.71 557.8,-575.71"/>
<polygon fill="#2e8b57" stroke="#2e8b57" stroke-width="2.5" points="561.3,-252.2 557.8,-242.2 554.3,-252.2 561.3,-252.2"/>
<text text-anchor="middle" x="621" y="-406.2" font-family="sans-serif" font-size="11.00"> &#160;write &#160;</text>
</g>
<!-- DBUS -->
<g id="node13" class="node">
<title>DBUS</title>
<path fill="#f5deb3" stroke="black" d="M557.5,-50C557.5,-50 473.5,-50 473.5,-50 467.5,-50 461.5,-44 461.5,-38 461.5,-38 461.5,-12 461.5,-12 461.5,-6 467.5,0 473.5,0 473.5,0 557.5,0 557.5,0 563.5,0 569.5,-6 569.5,-12 569.5,-12 569.5,-38 569.5,-38 569.5,-44 563.5,-50 557.5,-50"/>
<text text-anchor="middle" x="515.5" y="-21.3" font-family="sans-serif" font-size="14.00">D&#45;Wishbone</text>
</g>
<!-- MEM&#45;&gt;DBUS -->
<g id="edge14" class="edge">
<title>MEM&#45;&gt;DBUS</title>
<path fill="none" stroke="black" stroke-width="2" d="M515.5,-191.9C515.5,-191.9 515.5,-60.11 515.5,-60.11"/>
<polygon fill="black" stroke="black" stroke-width="2" points="519,-60.11 515.5,-50.11 512,-60.11 519,-60.11"/>
<text text-anchor="middle" x="532.5" y="-118.2" font-family="sans-serif" font-size="11.00"> &#160;req &#160;</text>
</g>
</g>
</svg>
