<?xml version="1.0" encoding="UTF-8" standalone="no"?>
<!DOCTYPE svg PUBLIC "-//W3C//DTD SVG 1.1//EN"
 "http://www.w3.org/Graphics/SVG/1.1/DTD/svg11.dtd">
<!-- Generated by graphviz version 2.43.0 (0)
 -->
<!-- Title: EXU Pages: 1 -->
<svg width="866pt" height="368pt"
 viewBox="0.00 0.00 866.00 368.00" xmlns="http://www.w3.org/2000/svg" xmlns:xlink="http://www.w3.org/1999/xlink">
<g id="graph0" class="graph" transform="scale(1 1) rotate(0) translate(4 364)">
<title>EXU</title>
<polygon fill="white" stroke="transparent" points="-4,4 -4,-364 862,-364 862,4 -4,4"/>
<g id="clust1" class="cluster">
<title>cluster_exu</title>
<path fill="#e0f0ff" stroke="#4682b4" d="M20,-100C20,-100 644,-100 644,-100 650,-100 656,-106 656,-112 656,-112 656,-271 656,-271 656,-277 650,-283 644,-283 644,-283 20,-283 20,-283 14,-283 8,-277 8,-271 8,-271 8,-112 8,-112 8,-106 14,-100 20,-100"/>
<text text-anchor="middle" x="332" y="-267.8" font-family="Arial Bold" font-size="14.00">Execution Unit</text>
</g>
<!-- OP1 -->
<g id="node1" class="node">
<title>OP1</title>
<path fill="#ffffe0" stroke="black" d="M371,-360C371,-360 309,-360 309,-360 303,-360 297,-354 297,-348 297,-348 297,-336 297,-336 297,-330 303,-324 309,-324 309,-324 371,-324 371,-324 377,-324 383,-330 383,-336 383,-336 383,-348 383,-348 383,-354 377,-360 371,-360"/>
<text text-anchor="middle" x="340" y="-338.3" font-family="sans-serif" font-size="14.00">Operand 1</text>
</g>
<!-- ALU -->
<g id="node6" class="node">
<title>ALU</title>
<path fill="#90ee90" stroke="black" d="M90,-252C90,-252 28,-252 28,-252 22,-252 16,-246 16,-240 16,-240 16,-228 16,-228 16,-222 22,-216 28,-216 28,-216 90,-216 90,-216 96,-216 102,-222 102,-228 102,-228 102,-240 102,-240 102,-246 96,-252 90,-252"/>
<text text-anchor="middle" x="59" y="-230.3" font-family="sans-serif" font-size="14.00">64&#45;bit ALU</text>
</g>
<!-- OP1&#45;&gt;ALU -->
<g id="edge1" class="edge">
<title>OP1&#45;&gt;ALU</title>
<path fill="none" stroke="black" d="M322.67,-323.96C322.67,-316.25 322.67,-309 322.67,-309 322.67,-309 78.5,-309 78.5,-309 78.5,-309 78.5,-262.16 78.5,-262.16"/>
<polygon fill="black" stroke="black" points="82,-262.16 78.5,-252.16 75,-262.16 82,-262.16"/>
</g>
<!-- MUL -->
<g id="node7" class="node">
<title>MUL</title>
<path fill="#87ceeb" stroke="black" d="M362,-252C362,-252 300,-252 300,-252 294,-252 288,-246 288,-240 288,-240 288,-228 288,-228 288,-222 294,-216 300,-216 300,-216 362,-216 362,-216 368,-216 374,-222 374,-228 374,-228 374,-240 374,-240 374,-246 368,-252 362,-252"/>
<text text-anchor="middle" x="331" y="-237.8" font-family="sans-serif" font-size="14.00">Multiplier</text>
<text text-anchor="middle" x="331" y="-222.8" font-family="sans-serif" font-size="14.00">Unit</text>
</g>
<!-- OP1&#45;&gt;MUL -->
<g id="edge3" class="edge">
<title>OP1&#45;&gt;MUL</title>
<path fill="none" stroke="black" d="M348.33,-323.68C348.33,-323.68 348.33,-262.05 348.33,-262.05"/>
<polygon fill="black" stroke="black" points="351.83,-262.05 348.33,-252.05 344.83,-262.05 351.83,-262.05"/>
</g>
<!-- DIV -->
<g id="node8" class="node">
<title>DIV</title>
<path fill="#f5deb3" stroke="black" d="M226,-252C226,-252 164,-252 164,-252 158,-252 152,-246 152,-240 152,-240 152,-228 152,-228 152,-222 158,-216 164,-216 164,-216 226,-216 226,-216 232,-216 238,-222 238,-228 238,-228 238,-240 238,-240 238,-246 232,-252 226,-252"/>
<text text-anchor="middle" x="195" y="-237.8" font-family="sans-serif" font-size="14.00">Divider</text>
<text text-anchor="middle" x="195" y="-222.8" font-family="sans-serif" font-size="14.00">Unit</text>
</g>
<!-- OP1&#45;&gt;DIV -->
<g id="edge5" class="edge">
<title>OP1&#45;&gt;DIV</title>
<path fill="none" stroke="black" d="M296.99,-348C281.38,-348 267.5,-348 267.5,-348 267.5,-348 267.5,-234 267.5,-234 267.5,-234 248.01,-234 248.01,-234"/>
<polygon fill="black" stroke="black" points="248.01,-230.5 238.01,-234 248.01,-237.5 248.01,-230.5"/>
</g>
<!-- BRANCH -->
<g id="node9" class="node">
<title>BRANCH</title>
<path fill="#ffa500" stroke="black" d="M491.5,-252C491.5,-252 436.5,-252 436.5,-252 430.5,-252 424.5,-246 424.5,-240 424.5,-240 424.5,-228 424.5,-228 424.5,-222 430.5,-216 436.5,-216 436.5,-216 491.5,-216 491.5,-216 497.5,-216 503.5,-222 503.5,-228 503.5,-228 503.5,-240 503.5,-240 503.5,-246 497.5,-252 491.5,-252"/>
<text text-anchor="middle" x="464" y="-237.8" font-family="sans-serif" font-size="14.00">Branch</text>
<text text-anchor="middle" x="464" y="-222.8" font-family="sans-serif" font-size="14.00">Eval</text>
</g>
<!-- OP1&#45;&gt;BRANCH -->
<g id="edge7" class="edge">
<title>OP1&#45;&gt;BRANCH</title>
<path fill="none" stroke="black" d="M380,-323.68C380,-292.87 380,-234 380,-234 380,-234 414.46,-234 414.46,-234"/>
<polygon fill="black" stroke="black" points="414.46,-237.5 424.46,-234 414.46,-230.5 414.46,-237.5"/>
</g>
<!-- ADDR_CALC -->
<g id="node10" class="node">
<title>ADDR_CALC</title>
<path fill="#ffb6c1" stroke="black" d="M636,-252C636,-252 566,-252 566,-252 560,-252 554,-246 554,-240 554,-240 554,-228 554,-228 554,-222 560,-216 566,-216 566,-216 636,-216 636,-216 642,-216 648,-222 648,-228 648,-228 648,-240 648,-240 648,-246 642,-252 636,-252"/>
<text text-anchor="middle" x="601" y="-237.8" font-family="sans-serif" font-size="14.00">Address</text>
<text text-anchor="middle" x="601" y="-222.8" font-family="sans-serif" font-size="14.00">Calculator</text>
</g>
<!-- OP1&#45;&gt;ADDR_CALC -->
<g id="edge11" class="edge">
<title>OP1&#45;&gt;ADDR_CALC</title>
<path fill="none" stroke="black" d="M377,-323.96C377,-310.71 377,-295 377,-295 377,-295 562.83,-295 562.83,-295 562.83,-295 562.83,-262.3 562.83,-262.3"/>
<polygon fill="black" stroke="black" points="566.33,-262.3 562.83,-252.3 559.33,-262.3 566.33,-262.3"/>
</g>
<!-- OP2 -->
<g id="node2" class="node">
<title>OP2</title>
<path fill="#ffffe0" stroke="black" d="M235,-360C235,-360 173,-360 173,-360 167,-360 161,-354 161,-348 161,-348 161,-336 161,-336 161,-330 167,-324 173,-324 173,-324 235,-324 235,-324 241,-324 247,-330 247,-336 247,-336 247,-348 247,-348 247,-354 241,-360 235,-360"/>
<text text-anchor="middle" x="204" y="-338.3" font-family="sans-serif" font-size="14.00">Operand 2</text>
</g>
<!-- OP2&#45;&gt;ALU -->
<g id="edge2" class="edge">
<title>OP2&#45;&gt;ALU</title>
<path fill="none" stroke="black" d="M160.84,-342C145.17,-342 131.25,-342 131.25,-342 131.25,-342 131.25,-240 131.25,-240 131.25,-240 112.28,-240 112.28,-240"/>
<polygon fill="black" stroke="black" points="112.28,-236.5 102.28,-240 112.28,-243.5 112.28,-236.5"/>
</g>
<!-- OP2&#45;&gt;MUL -->
<g id="edge4" class="edge">
<title>OP2&#45;&gt;MUL</title>
<path fill="none" stroke="black" d="M247.15,-336C270.25,-336 294,-336 294,-336 294,-336 294,-262.24 294,-262.24"/>
<polygon fill="black" stroke="black" points="297.5,-262.24 294,-252.24 290.5,-262.24 297.5,-262.24"/>
</g>
<!-- OP2&#45;&gt;DIV -->
<g id="edge6" class="edge">
<title>OP2&#45;&gt;DIV</title>
<path fill="none" stroke="black" d="M199.5,-323.68C199.5,-323.68 199.5,-262.05 199.5,-262.05"/>
<polygon fill="black" stroke="black" points="203,-262.05 199.5,-252.05 196,-262.05 203,-262.05"/>
</g>
<!-- OP2&#45;&gt;BRANCH -->
<g id="edge8" class="edge">
<title>OP2&#45;&gt;BRANCH</title>
<path fill="none" stroke="black" d="M242.5,-323.73C242.5,-305.44 242.5,-280 242.5,-280 242.5,-280 463,-280 463,-280 463,-280 463,-262.18 463,-262.18"/>
<polygon fill="black" stroke="black" points="466.5,-262.18 463,-252.18 459.5,-262.18 466.5,-262.18"/>
</g>
<!-- ALU_OP -->
<g id="node3" class="node">
<title>ALU_OP</title>
<path fill="#ffffe0" stroke="black" d="M98.5,-360C98.5,-360 43.5,-360 43.5,-360 37.5,-360 31.5,-354 31.5,-348 31.5,-348 31.5,-336 31.5,-336 31.5,-330 37.5,-324 43.5,-324 43.5,-324 98.5,-324 98.5,-324 104.5,-324 110.5,-330 110.5,-336 110.5,-336 110.5,-348 110.5,-348 110.5,-354 104.5,-360 98.5,-360"/>
<text text-anchor="middle" x="71" y="-345.8" font-family="sans-serif" font-size="14.00">ALU Op</text>
<text text-anchor="middle" x="71" y="-330.8" font-family="sans-serif" font-size="14.00">Code</text>
</g>
<!-- ALU_OP&#45;&gt;ALU -->
<g id="edge12" class="edge">
<title>ALU_OP&#45;&gt;ALU</title>
<path fill="none" stroke="black" d="M55,-323.68C55,-323.68 55,-262.05 55,-262.05"/>
<polygon fill="black" stroke="black" points="58.5,-262.05 55,-252.05 51.5,-262.05 58.5,-262.05"/>
</g>
<!-- ALU_OP&#45;&gt;MUL -->
<g id="edge13" class="edge">
<title>ALU_OP&#45;&gt;MUL</title>
<path fill="none" stroke="black" d="M104.83,-323.99C104.83,-301.51 104.83,-266 104.83,-266 104.83,-266 291,-266 291,-266 291,-266 291,-262.24 291,-262.24"/>
<polygon fill="black" stroke="black" points="294.5,-262.24 291,-252.24 287.5,-262.24 294.5,-262.24"/>
</g>
<!-- ALU_OP&#45;&gt;DIV -->
<g id="edge14" class="edge">
<title>ALU_OP&#45;&gt;DIV</title>
<path fill="none" stroke="black" d="M107.67,-323.94C107.67,-291.79 107.67,-228 107.67,-228 107.67,-228 141.85,-228 141.85,-228"/>
<polygon fill="black" stroke="black" points="141.85,-231.5 151.85,-228 141.85,-224.5 141.85,-231.5"/>
</g>
<!-- PC -->
<g id="node4" class="node">
<title>PC</title>
<path fill="#ffffe0" stroke="black" d="M677,-360C677,-360 643,-360 643,-360 637,-360 631,-354 631,-348 631,-348 631,-336 631,-336 631,-330 637,-324 643,-324 643,-324 677,-324 677,-324 683,-324 689,-330 689,-336 689,-336 689,-348 689,-348 689,-354 683,-360 677,-360"/>
<text text-anchor="middle" x="660" y="-338.3" font-family="sans-serif" font-size="14.00">PC</text>
</g>
<!-- PC&#45;&gt;ADDR_CALC -->
<g id="edge9" class="edge">
<title>PC&#45;&gt;ADDR_CALC</title>
<path fill="none" stroke="black" d="M639.5,-323.68C639.5,-323.68 639.5,-262.05 639.5,-262.05"/>
<polygon fill="black" stroke="black" points="643,-262.05 639.5,-252.05 636,-262.05 643,-262.05"/>
</g>
<!-- IMM -->
<g id="node5" class="node">
<title>IMM</title>
<path fill="#ffffe0" stroke="black" d="M568.5,-360C568.5,-360 513.5,-360 513.5,-360 507.5,-360 501.5,-354 501.5,-348 501.5,-348 501.5,-336 501.5,-336 501.5,-330 507.5,-324 513.5,-324 513.5,-324 568.5,-324 568.5,-324 574.5,-324 580.5,-330 580.5,-336 580.5,-336 580.5,-348 580.5,-348 580.5,-354 574.5,-360 568.5,-360"/>
<text text-anchor="middle" x="541" y="-338.3" font-family="sans-serif" font-size="14.00">Immediate</text>
</g>
<!-- IMM&#45;&gt;ADDR_CALC -->
<g id="edge10" class="edge">
<title>IMM&#45;&gt;ADDR_CALC</title>
<path fill="none" stroke="black" d="M571.67,-323.68C571.67,-323.68 571.67,-262.05 571.67,-262.05"/>
<polygon fill="black" stroke="black" points="575.17,-262.05 571.67,-252.05 568.17,-262.05 575.17,-262.05"/>
</g>
<!-- RES_MUX -->
<g id="node11" class="node">
<title>RES_MUX</title>
<path fill="#e6e6fa" stroke="black" d="M290.5,-144C290.5,-144 235.5,-144 235.5,-144 229.5,-144 223.5,-138 223.5,-132 223.5,-132 223.5,-120 223.5,-120 223.5,-114 229.5,-108 235.5,-108 235.5,-108 290.5,-108 290.5,-108 296.5,-108 302.5,-114 302.5,-120 302.5,-120 302.5,-132 302.5,-132 302.5,-138 296.5,-144 290.5,-144"/>
<text text-anchor="middle" x="263" y="-129.8" font-family="sans-serif" font-size="14.00">Result</text>
<text text-anchor="middle" x="263" y="-114.8" font-family="sans-serif" font-size="14.00">Mux</text>
</g>
<!-- ALU&#45;&gt;RES_MUX -->
<g id="edge15" class="edge">
<title>ALU&#45;&gt;RES_MUX</title>
<path fill="none" stroke="black" d="M59,-215.68C59,-184.87 59,-126 59,-126 59,-126 213.18,-126 213.18,-126"/>
<polygon fill="black" stroke="black" points="213.18,-129.5 223.18,-126 213.18,-122.5 213.18,-129.5"/>
</g>
<!-- MUL&#45;&gt;RES_MUX -->
<g id="edge16" class="edge">
<title>MUL&#45;&gt;RES_MUX</title>
<path fill="none" stroke="black" d="M295.25,-215.68C295.25,-215.68 295.25,-154.05 295.25,-154.05"/>
<polygon fill="black" stroke="black" points="298.75,-154.05 295.25,-144.05 291.75,-154.05 298.75,-154.05"/>
</g>
<!-- DIV&#45;&gt;RES_MUX -->
<g id="edge17" class="edge">
<title>DIV&#45;&gt;RES_MUX</title>
<path fill="none" stroke="black" d="M230.75,-215.68C230.75,-215.68 230.75,-154.05 230.75,-154.05"/>
<polygon fill="black" stroke="black" points="234.25,-154.05 230.75,-144.05 227.25,-154.05 234.25,-154.05"/>
</g>
<!-- BRANCH_OUT -->
<g id="node13" class="node">
<title>BRANCH_OUT</title>
<path fill="#d3d3d3" stroke="black" d="M724,-144C724,-144 676,-144 676,-144 670,-144 664,-138 664,-132 664,-132 664,-120 664,-120 664,-114 670,-108 676,-108 676,-108 724,-108 724,-108 730,-108 736,-114 736,-120 736,-120 736,-132 736,-132 736,-138 730,-144 724,-144"/>
<text text-anchor="middle" x="700" y="-129.8" font-family="sans-serif" font-size="14.00">Branch</text>
<text text-anchor="middle" x="700" y="-114.8" font-family="sans-serif" font-size="14.00">Taken</text>
</g>
<!-- BRANCH&#45;&gt;BRANCH_OUT -->
<g id="edge20" class="edge">
<title>BRANCH&#45;&gt;BRANCH_OUT</title>
<path fill="none" stroke="black" d="M464,-215.94C464,-183.79 464,-120 464,-120 464,-120 653.9,-120 653.9,-120"/>
<polygon fill="black" stroke="black" points="653.9,-123.5 663.9,-120 653.9,-116.5 653.9,-123.5"/>
</g>
<!-- ADDR_CALC&#45;&gt;RES_MUX -->
<g id="edge18" class="edge">
<title>ADDR_CALC&#45;&gt;RES_MUX</title>
<path fill="none" stroke="black" d="M601,-215.76C601,-186.43 601,-132 601,-132 601,-132 312.77,-132 312.77,-132"/>
<polygon fill="black" stroke="black" points="312.77,-128.5 302.77,-132 312.77,-135.5 312.77,-128.5"/>
</g>
<!-- TARGET -->
<g id="node14" class="node">
<title>TARGET</title>
<path fill="#d3d3d3" stroke="black" d="M846,-144C846,-144 798,-144 798,-144 792,-144 786,-138 786,-132 786,-132 786,-120 786,-120 786,-114 792,-108 798,-108 798,-108 846,-108 846,-108 852,-108 858,-114 858,-120 858,-120 858,-132 858,-132 858,-138 852,-144 846,-144"/>
<text text-anchor="middle" x="822" y="-129.8" font-family="sans-serif" font-size="14.00">Branch</text>
<text text-anchor="middle" x="822" y="-114.8" font-family="sans-serif" font-size="14.00">Target</text>
</g>
<!-- ADDR_CALC&#45;&gt;TARGET -->
<g id="edge21" class="edge">
<title>ADDR_CALC&#45;&gt;TARGET</title>
<path fill="none" stroke="black" d="M648.14,-234C713.04,-234 822,-234 822,-234 822,-234 822,-154.32 822,-154.32"/>
<polygon fill="black" stroke="black" points="825.5,-154.32 822,-144.32 818.5,-154.32 825.5,-154.32"/>
</g>
<!-- RESULT -->
<g id="node12" class="node">
<title>RESULT</title>
<path fill="#d3d3d3" stroke="black" d="M283.5,-36C283.5,-36 242.5,-36 242.5,-36 236.5,-36 230.5,-30 230.5,-24 230.5,-24 230.5,-12 230.5,-12 230.5,-6 236.5,0 242.5,0 242.5,0 283.5,0 283.5,0 289.5,0 295.5,-6 295.5,-12 295.5,-12 295.5,-24 295.5,-24 295.5,-30 289.5,-36 283.5,-36"/>
<text text-anchor="middle" x="263" y="-14.3" font-family="sans-serif" font-size="14.00">Result</text>
</g>
<!-- RES_MUX&#45;&gt;RESULT -->
<g id="edge19" class="edge">
<title>RES_MUX&#45;&gt;RESULT</title>
<path fill="none" stroke="black" d="M263,-107.68C263,-107.68 263,-46.05 263,-46.05"/>
<polygon fill="black" stroke="black" points="266.5,-46.05 263,-36.05 259.5,-46.05 266.5,-46.05"/>
</g>
</g>
</svg>
