<?xml version="1.0" encoding="UTF-8" standalone="no"?>
<!DOCTYPE svg PUBLIC "-//W3C//DTD SVG 1.1//EN"
 "http://www.w3.org/Graphics/SVG/1.1/DTD/svg11.dtd">
<!-- Generated by graphviz version 2.43.0 (0)
 -->
<!-- Title: LSU Pages: 1 -->
<svg width="934pt" height="406pt"
 viewBox="0.00 0.00 933.50 406.00" xmlns="http://www.w3.org/2000/svg" xmlns:xlink="http://www.w3.org/1999/xlink">
<g id="graph0" class="graph" transform="scale(1 1) rotate(0) translate(4 402)">
<title>LSU</title>
<polygon fill="white" stroke="transparent" points="-4,4 -4,-402 929.5,-402 929.5,4 -4,4"/>
<g id="clust1" class="cluster">
<title>cluster_lsu</title>
<path fill="#e0f0ff" stroke="#4682b4" d="M235.5,-117C235.5,-117 753.5,-117 753.5,-117 759.5,-117 765.5,-123 765.5,-129 765.5,-129 765.5,-305 765.5,-305 765.5,-311 759.5,-317 753.5,-317 753.5,-317 235.5,-317 235.5,-317 229.5,-317 223.5,-311 223.5,-305 223.5,-305 223.5,-129 223.5,-129 223.5,-123 229.5,-117 235.5,-117"/>
<text text-anchor="middle" x="494.5" y="-301.8" font-family="Arial Bold" font-size="14.00">Load/Store Unit</text>
</g>
<!-- BASE -->
<g id="node1" class="node">
<title>BASE</title>
<path fill="#ffffe0" stroke="black" d="M913.5,-398C913.5,-398 851.5,-398 851.5,-398 845.5,-398 839.5,-392 839.5,-386 839.5,-386 839.5,-374 839.5,-374 839.5,-368 845.5,-362 851.5,-362 851.5,-362 913.5,-362 913.5,-362 919.5,-362 925.5,-368 925.5,-374 925.5,-374 925.5,-386 925.5,-386 925.5,-392 919.5,-398 913.5,-398"/>
<text text-anchor="middle" x="882.5" y="-391.3" font-family="sans-serif" font-size="14.00">Base</text>
<text text-anchor="middle" x="882.5" y="-376.3" font-family="sans-serif" font-size="14.00">Address</text>
<text text-anchor="middle" x="882.5" y="-361.3" font-family="sans-serif" font-size="14.00">(rs1)</text>
</g>
<!-- ADDR_GEN -->
<g id="node5" class="node">
<title>ADDR_GEN</title>
<path fill="#90ee90" stroke="black" d="M745.5,-286C745.5,-286 675.5,-286 675.5,-286 669.5,-286 663.5,-280 663.5,-274 663.5,-274 663.5,-262 663.5,-262 663.5,-256 669.5,-250 675.5,-250 675.5,-250 745.5,-250 745.5,-250 751.5,-250 757.5,-256 757.5,-262 757.5,-262 757.5,-274 757.5,-274 757.5,-280 751.5,-286 745.5,-286"/>
<text text-anchor="middle" x="710.5" y="-271.8" font-family="sans-serif" font-size="14.00">Address</text>
<text text-anchor="middle" x="710.5" y="-256.8" font-family="sans-serif" font-size="14.00">Generator</text>
</g>
<!-- BASE&#45;&gt;ADDR_GEN -->
<g id="edge1" class="edge">
<title>BASE&#45;&gt;ADDR_GEN</title>
<path fill="none" stroke="black" d="M882.5,-361.51C882.5,-329.69 882.5,-268 882.5,-268 882.5,-268 767.96,-268 767.96,-268"/>
<polygon fill="black" stroke="black" points="767.96,-264.5 757.96,-268 767.96,-271.5 767.96,-264.5"/>
</g>
<!-- OFFSET -->
<g id="node2" class="node">
<title>OFFSET</title>
<path fill="#ffffe0" stroke="black" d="M777.5,-398C777.5,-398 715.5,-398 715.5,-398 709.5,-398 703.5,-392 703.5,-386 703.5,-386 703.5,-374 703.5,-374 703.5,-368 709.5,-362 715.5,-362 715.5,-362 777.5,-362 777.5,-362 783.5,-362 789.5,-368 789.5,-374 789.5,-374 789.5,-386 789.5,-386 789.5,-392 783.5,-398 777.5,-398"/>
<text text-anchor="middle" x="746.5" y="-383.8" font-family="sans-serif" font-size="14.00">Offset</text>
<text text-anchor="middle" x="746.5" y="-368.8" font-family="sans-serif" font-size="14.00">(imm/rs2)</text>
</g>
<!-- OFFSET&#45;&gt;ADDR_GEN -->
<g id="edge2" class="edge">
<title>OFFSET&#45;&gt;ADDR_GEN</title>
<path fill="none" stroke="black" d="M730.5,-361.51C730.5,-361.51 730.5,-296.15 730.5,-296.15"/>
<polygon fill="black" stroke="black" points="734,-296.15 730.5,-286.15 727,-296.15 734,-296.15"/>
</g>
<!-- STORE_DATA -->
<g id="node3" class="node">
<title>STORE_DATA</title>
<path fill="#ffffe0" stroke="black" d="M641.5,-398C641.5,-398 579.5,-398 579.5,-398 573.5,-398 567.5,-392 567.5,-386 567.5,-386 567.5,-374 567.5,-374 567.5,-368 573.5,-362 579.5,-362 579.5,-362 641.5,-362 641.5,-362 647.5,-362 653.5,-368 653.5,-374 653.5,-374 653.5,-386 653.5,-386 653.5,-392 647.5,-398 641.5,-398"/>
<text text-anchor="middle" x="610.5" y="-383.8" font-family="sans-serif" font-size="14.00">Store Data</text>
<text text-anchor="middle" x="610.5" y="-368.8" font-family="sans-serif" font-size="14.00">(rs2)</text>
</g>
<!-- BYTE_SEL -->
<g id="node8" class="node">
<title>BYTE_SEL</title>
<path fill="#f5deb3" stroke="black" d="M601.5,-286C601.5,-286 531.5,-286 531.5,-286 525.5,-286 519.5,-280 519.5,-274 519.5,-274 519.5,-262 519.5,-262 519.5,-256 525.5,-250 531.5,-250 531.5,-250 601.5,-250 601.5,-250 607.5,-250 613.5,-256 613.5,-262 613.5,-262 613.5,-274 613.5,-274 613.5,-280 607.5,-286 601.5,-286"/>
<text text-anchor="middle" x="566.5" y="-271.8" font-family="sans-serif" font-size="14.00">Byte</text>
<text text-anchor="middle" x="566.5" y="-256.8" font-family="sans-serif" font-size="14.00">Select/Mask</text>
</g>
<!-- STORE_DATA&#45;&gt;BYTE_SEL -->
<g id="edge6" class="edge">
<title>STORE_DATA&#45;&gt;BYTE_SEL</title>
<path fill="none" stroke="black" d="M590.5,-361.51C590.5,-361.51 590.5,-296.15 590.5,-296.15"/>
<polygon fill="black" stroke="black" points="594,-296.15 590.5,-286.15 587,-296.15 594,-296.15"/>
</g>
<!-- CTRL -->
<g id="node4" class="node">
<title>CTRL</title>
<path fill="#ffffe0" stroke="black" d="M496,-398C496,-398 441,-398 441,-398 435,-398 429,-392 429,-386 429,-386 429,-374 429,-374 429,-368 435,-362 441,-362 441,-362 496,-362 496,-362 502,-362 508,-368 508,-374 508,-374 508,-386 508,-386 508,-392 502,-398 496,-398"/>
<text text-anchor="middle" x="468.5" y="-383.8" font-family="sans-serif" font-size="14.00">Control</text>
<text text-anchor="middle" x="468.5" y="-368.8" font-family="sans-serif" font-size="14.00">Signals</text>
</g>
<!-- ALIGN_CHK -->
<g id="node6" class="node">
<title>ALIGN_CHK</title>
<path fill="#ffa500" stroke="black" d="M745.5,-161C745.5,-161 675.5,-161 675.5,-161 669.5,-161 663.5,-155 663.5,-149 663.5,-149 663.5,-137 663.5,-137 663.5,-131 669.5,-125 675.5,-125 675.5,-125 745.5,-125 745.5,-125 751.5,-125 757.5,-131 757.5,-137 757.5,-137 757.5,-149 757.5,-149 757.5,-155 751.5,-161 745.5,-161"/>
<text text-anchor="middle" x="710.5" y="-146.8" font-family="sans-serif" font-size="14.00">Alignment</text>
<text text-anchor="middle" x="710.5" y="-131.8" font-family="sans-serif" font-size="14.00">Check</text>
</g>
<!-- CTRL&#45;&gt;ALIGN_CHK -->
<g id="edge5" class="edge">
<title>CTRL&#45;&gt;ALIGN_CHK</title>
<path fill="none" stroke="black" d="M482.33,-361.8C482.33,-306.3 482.33,-143 482.33,-143 482.33,-143 653.22,-143 653.22,-143"/>
<polygon fill="black" stroke="black" points="653.22,-146.5 663.22,-143 653.22,-139.5 653.22,-146.5"/>
</g>
<!-- ATOMIC -->
<g id="node7" class="node">
<title>ATOMIC</title>
<path fill="#87ceeb" stroke="black" d="M457.5,-286C457.5,-286 387.5,-286 387.5,-286 381.5,-286 375.5,-280 375.5,-274 375.5,-274 375.5,-262 375.5,-262 375.5,-256 381.5,-250 387.5,-250 387.5,-250 457.5,-250 457.5,-250 463.5,-250 469.5,-256 469.5,-262 469.5,-262 469.5,-274 469.5,-274 469.5,-280 463.5,-286 457.5,-286"/>
<text text-anchor="middle" x="422.5" y="-279.3" font-family="sans-serif" font-size="14.00">Atomic</text>
<text text-anchor="middle" x="422.5" y="-264.3" font-family="sans-serif" font-size="14.00">Operation</text>
<text text-anchor="middle" x="422.5" y="-249.3" font-family="sans-serif" font-size="14.00">Logic</text>
</g>
<!-- CTRL&#45;&gt;ATOMIC -->
<g id="edge11" class="edge">
<title>CTRL&#45;&gt;ATOMIC</title>
<path fill="none" stroke="black" d="M449.25,-361.51C449.25,-361.51 449.25,-296.15 449.25,-296.15"/>
<polygon fill="black" stroke="black" points="452.75,-296.15 449.25,-286.15 445.75,-296.15 452.75,-296.15"/>
</g>
<!-- CTRL&#45;&gt;BYTE_SEL -->
<g id="edge13" class="edge">
<title>CTRL&#45;&gt;BYTE_SEL</title>
<path fill="none" stroke="black" d="M495.17,-361.51C495.17,-329.69 495.17,-268 495.17,-268 495.17,-268 509.32,-268 509.32,-268"/>
<polygon fill="black" stroke="black" points="509.32,-271.5 519.32,-268 509.32,-264.5 509.32,-271.5"/>
</g>
<!-- LD_EXT -->
<g id="node9" class="node">
<title>LD_EXT</title>
<path fill="#ffb6c1" stroke="black" d="M313.5,-286C313.5,-286 243.5,-286 243.5,-286 237.5,-286 231.5,-280 231.5,-274 231.5,-274 231.5,-262 231.5,-262 231.5,-256 237.5,-250 243.5,-250 243.5,-250 313.5,-250 313.5,-250 319.5,-250 325.5,-256 325.5,-262 325.5,-262 325.5,-274 325.5,-274 325.5,-280 319.5,-286 313.5,-286"/>
<text text-anchor="middle" x="278.5" y="-271.8" font-family="sans-serif" font-size="14.00">Load</text>
<text text-anchor="middle" x="278.5" y="-256.8" font-family="sans-serif" font-size="14.00">Extension</text>
</g>
<!-- CTRL&#45;&gt;LD_EXT -->
<g id="edge14" class="edge">
<title>CTRL&#45;&gt;LD_EXT</title>
<path fill="none" stroke="black" d="M428.67,-380C372.96,-380 278.5,-380 278.5,-380 278.5,-380 278.5,-296.49 278.5,-296.49"/>
<polygon fill="black" stroke="black" points="282,-296.49 278.5,-286.49 275,-296.49 282,-296.49"/>
</g>
<!-- ADDR_GEN&#45;&gt;ALIGN_CHK -->
<g id="edge3" class="edge">
<title>ADDR_GEN&#45;&gt;ALIGN_CHK</title>
<path fill="none" stroke="black" d="M726.17,-249.82C726.17,-249.82 726.17,-171.2 726.17,-171.2"/>
<polygon fill="black" stroke="black" points="729.67,-171.2 726.17,-161.2 722.67,-171.2 729.67,-171.2"/>
</g>
<!-- AXI_IF -->
<g id="node10" class="node">
<title>AXI_IF</title>
<ellipse fill="#f0e68c" stroke="black" cx="172.5" cy="-143" rx="43" ry="25"/>
<text text-anchor="middle" x="172.5" y="-146.8" font-family="sans-serif" font-size="14.00">AXI4</text>
<text text-anchor="middle" x="172.5" y="-131.8" font-family="sans-serif" font-size="14.00">Data I/F</text>
</g>
<!-- ADDR_GEN&#45;&gt;AXI_IF -->
<g id="edge4" class="edge">
<title>ADDR_GEN&#45;&gt;AXI_IF</title>
<path fill="none" stroke="black" d="M694.83,-249.54C694.83,-219.17 694.83,-162 694.83,-162 694.83,-162 210.58,-162 210.58,-162"/>
<polygon fill="black" stroke="black" points="210.58,-158.5 200.58,-162 210.58,-165.5 210.58,-158.5"/>
<text text-anchor="middle" x="648.5" y="-206.8" font-family="sans-serif" font-size="9.00">address</text>
</g>
<!-- EXCEPTION -->
<g id="node12" class="node">
<title>EXCEPTION</title>
<path fill="#d3d3d3" stroke="black" d="M738,-36C738,-36 683,-36 683,-36 677,-36 671,-30 671,-24 671,-24 671,-12 671,-12 671,-6 677,0 683,0 683,0 738,0 738,0 744,0 750,-6 750,-12 750,-12 750,-24 750,-24 750,-30 744,-36 738,-36"/>
<text text-anchor="middle" x="710.5" y="-14.3" font-family="sans-serif" font-size="14.00">Exception</text>
</g>
<!-- ALIGN_CHK&#45;&gt;EXCEPTION -->
<g id="edge10" class="edge">
<title>ALIGN_CHK&#45;&gt;EXCEPTION</title>
<path fill="none" stroke="black" d="M710.5,-124.82C710.5,-124.82 710.5,-46.2 710.5,-46.2"/>
<polygon fill="black" stroke="black" points="714,-46.2 710.5,-36.2 707,-46.2 714,-46.2"/>
<text text-anchor="middle" x="735" y="-74.8" font-family="sans-serif" font-size="9.00">misaligned</text>
</g>
<!-- ATOMIC&#45;&gt;AXI_IF -->
<g id="edge12" class="edge">
<title>ATOMIC&#45;&gt;AXI_IF</title>
<path fill="none" stroke="black" stroke-dasharray="5,2" d="M422.5,-249.59C422.5,-219.96 422.5,-165 422.5,-165 422.5,-165 202.96,-165 202.96,-165"/>
<polygon fill="black" stroke="black" points="202.96,-161.5 192.96,-165 202.96,-168.5 202.96,-161.5"/>
</g>
<!-- BYTE_SEL&#45;&gt;AXI_IF -->
<g id="edge7" class="edge">
<title>BYTE_SEL&#45;&gt;AXI_IF</title>
<path fill="none" stroke="black" d="M566.5,-249.71C566.5,-219.63 566.5,-163 566.5,-163 566.5,-163 208.35,-163 208.35,-163"/>
<polygon fill="black" stroke="black" points="208.35,-159.5 198.35,-163 208.35,-166.5 208.35,-159.5"/>
<text text-anchor="middle" x="514.5" y="-206.8" font-family="sans-serif" font-size="9.00">write data</text>
</g>
<!-- LD_DATA -->
<g id="node11" class="node">
<title>LD_DATA</title>
<path fill="#d3d3d3" stroke="black" d="M67,-161C67,-161 12,-161 12,-161 6,-161 0,-155 0,-149 0,-149 0,-137 0,-137 0,-131 6,-125 12,-125 12,-125 67,-125 67,-125 73,-125 79,-131 79,-137 79,-137 79,-149 79,-149 79,-155 73,-161 67,-161"/>
<text text-anchor="middle" x="39.5" y="-139.3" font-family="sans-serif" font-size="14.00">Load Data</text>
</g>
<!-- LD_EXT&#45;&gt;LD_DATA -->
<g id="edge9" class="edge">
<title>LD_EXT&#45;&gt;LD_DATA</title>
<path fill="none" stroke="black" d="M231.28,-268C161.63,-268 39.5,-268 39.5,-268 39.5,-268 39.5,-171.18 39.5,-171.18"/>
<polygon fill="black" stroke="black" points="43,-171.18 39.5,-161.18 36,-171.18 43,-171.18"/>
</g>
<!-- AXI_IF&#45;&gt;LD_EXT -->
<g id="edge8" class="edge">
<title>AXI_IF&#45;&gt;LD_EXT</title>
<path fill="none" stroke="black" d="M189.53,-166C219.49,-166 278.5,-166 278.5,-166 278.5,-166 278.5,-239.76 278.5,-239.76"/>
<polygon fill="black" stroke="black" points="275,-239.76 278.5,-249.76 282,-239.76 275,-239.76"/>
<text text-anchor="middle" x="238.5" y="-206.8" font-family="sans-serif" font-size="9.00">read data</text>
</g>
</g>
</svg>
