<?xml version="1.0" encoding="UTF-8" standalone="no"?>
<!DOCTYPE svg PUBLIC "-//W3C//DTD SVG 1.1//EN"
 "http://www.w3.org/Graphics/SVG/1.1/DTD/svg11.dtd">
<!-- Generated by graphviz version 2.43.0 (0)
 -->
<!-- Title: System_Overview Pages: 1 -->
<svg width="983pt" height="885pt"
 viewBox="0.00 0.00 982.50 885.00" xmlns="http://www.w3.org/2000/svg" xmlns:xlink="http://www.w3.org/1999/xlink">
<g id="graph0" class="graph" transform="scale(1 1) rotate(0) translate(4 881)">
<title>System_Overview</title>
<polygon fill="white" stroke="transparent" points="-4,4 -4,-881 978.5,-881 978.5,4 -4,4"/>
<!-- JTAG -->
<g id="node1" class="node">
<title>JTAG</title>
<path fill="#ffb6c1" stroke="black" d="M653.5,-877C653.5,-877 576.5,-877 576.5,-877 570.5,-877 564.5,-871 564.5,-865 564.5,-865 564.5,-842 564.5,-842 564.5,-836 570.5,-830 576.5,-830 576.5,-830 653.5,-830 653.5,-830 659.5,-830 665.5,-836 665.5,-842 665.5,-842 665.5,-865 665.5,-865 665.5,-871 659.5,-877 653.5,-877"/>
<text text-anchor="middle" x="615" y="-849.8" font-family="sans-serif" font-size="14.00">JTAG Debug</text>
</g>
<!-- CORE -->
<g id="node2" class="node">
<title>CORE</title>
<path fill="#87ceeb" stroke="black" d="M682,-674C682,-674 548,-674 548,-674 542,-674 536,-668 536,-662 536,-662 536,-628 536,-628 536,-622 542,-616 548,-616 548,-616 682,-616 682,-616 688,-616 694,-622 694,-628 694,-628 694,-662 694,-662 694,-668 688,-674 682,-674"/>
<text text-anchor="middle" x="615" y="-648.6" font-family="sans-serif" font-size="13.00">RV64</text>
<text text-anchor="middle" x="615" y="-634.6" font-family="sans-serif" font-size="13.00">Core</text>
</g>
<!-- JTAG&#45;&gt;CORE -->
<g id="edge9" class="edge">
<title>JTAG&#45;&gt;CORE</title>
<path fill="none" stroke="#4169e1" stroke-width="1.5" d="M615,-829.99C615,-829.99 615,-684.09 615,-684.09"/>
<polygon fill="#4169e1" stroke="#4169e1" stroke-width="1.5" points="618.5,-684.09 615,-674.09 611.5,-684.09 618.5,-684.09"/>
<text text-anchor="middle" x="639.5" y="-749.2" font-family="sans-serif" font-size="11.00"> &#160;debug &#160;</text>
</g>
<!-- BUS -->
<g id="node4" class="node">
<title>BUS</title>
<path fill="#f5deb3" stroke="black" d="M711,-460C711,-460 519,-460 519,-460 513,-460 507,-454 507,-448 507,-448 507,-407 507,-407 507,-401 513,-395 519,-395 519,-395 711,-395 711,-395 717,-395 723,-401 723,-407 723,-407 723,-448 723,-448 723,-454 717,-460 711,-460"/>
<text text-anchor="middle" x="615" y="-424.4" font-family="sans-serif" font-size="12.00">Wishbone Interconnect</text>
</g>
<!-- CORE&#45;&gt;BUS -->
<g id="edge1" class="edge">
<title>CORE&#45;&gt;BUS</title>
<path fill="none" stroke="#2e8b57" stroke-width="3" d="M615,-605.67C615,-605.67 615,-470.27 615,-470.27"/>
<polygon fill="#2e8b57" stroke="#2e8b57" stroke-width="3" points="618.5,-470.27 615,-460.27 611.5,-470.27 618.5,-470.27"/>
<polygon fill="#2e8b57" stroke="#2e8b57" stroke-width="3" points="611.5,-605.67 615,-615.67 618.5,-605.67 611.5,-605.67"/>
<text text-anchor="middle" x="630.5" y="-535.2" font-family="sans-serif" font-size="11.00"> &#160;I/D &#160;</text>
</g>
<!-- PLIC -->
<g id="node3" class="node">
<title>PLIC</title>
<path fill="#ffa500" stroke="black" d="M264,-670C264,-670 180,-670 180,-670 174,-670 168,-664 168,-658 168,-658 168,-632 168,-632 168,-626 174,-620 180,-620 180,-620 264,-620 264,-620 270,-620 276,-626 276,-632 276,-632 276,-658 276,-658 276,-664 270,-670 264,-670"/>
<text text-anchor="middle" x="222" y="-648.8" font-family="sans-serif" font-size="14.00">Interrupt</text>
<text text-anchor="middle" x="222" y="-633.8" font-family="sans-serif" font-size="14.00">Controller</text>
</g>
<!-- PLIC&#45;&gt;CORE -->
<g id="edge6" class="edge">
<title>PLIC&#45;&gt;CORE</title>
<path fill="none" stroke="#dc143c" stroke-width="2" d="M276.23,-645C276.23,-645 525.88,-645 525.88,-645"/>
<polygon fill="#dc143c" stroke="#dc143c" stroke-width="2" points="525.88,-648.5 535.88,-645 525.88,-641.5 525.88,-648.5"/>
</g>
<!-- IMEM -->
<g id="node5" class="node">
<title>IMEM</title>
<path fill="#ffffe0" stroke="black" d="M962.5,-250C962.5,-250 885.5,-250 885.5,-250 879.5,-250 873.5,-244 873.5,-238 873.5,-238 873.5,-215 873.5,-215 873.5,-209 879.5,-203 885.5,-203 885.5,-203 962.5,-203 962.5,-203 968.5,-203 974.5,-209 974.5,-215 974.5,-215 974.5,-238 974.5,-238 974.5,-244 968.5,-250 962.5,-250"/>
<text text-anchor="middle" x="924" y="-230.3" font-family="sans-serif" font-size="14.00">Instruction</text>
<text text-anchor="middle" x="924" y="-215.3" font-family="sans-serif" font-size="14.00">Memory</text>
</g>
<!-- BUS&#45;&gt;IMEM -->
<g id="edge2" class="edge">
<title>BUS&#45;&gt;IMEM</title>
<path fill="none" stroke="black" stroke-width="2" d="M733.07,-427C733.07,-427 924,-427 924,-427 924,-427 924,-260.29 924,-260.29"/>
<polygon fill="black" stroke="black" stroke-width="2" points="733.07,-423.5 723.07,-427 733.07,-430.5 733.07,-423.5"/>
<polygon fill="black" stroke="black" stroke-width="2" points="927.5,-260.29 924,-250.29 920.5,-260.29 927.5,-260.29"/>
</g>
<!-- DMEM -->
<g id="node6" class="node">
<title>DMEM</title>
<path fill="#ffffe0" stroke="black" d="M731.5,-250C731.5,-250 654.5,-250 654.5,-250 648.5,-250 642.5,-244 642.5,-238 642.5,-238 642.5,-215 642.5,-215 642.5,-209 648.5,-203 654.5,-203 654.5,-203 731.5,-203 731.5,-203 737.5,-203 743.5,-209 743.5,-215 743.5,-215 743.5,-238 743.5,-238 743.5,-244 737.5,-250 731.5,-250"/>
<text text-anchor="middle" x="693" y="-230.3" font-family="sans-serif" font-size="14.00">Data</text>
<text text-anchor="middle" x="693" y="-215.3" font-family="sans-serif" font-size="14.00">Memory</text>
</g>
<!-- BUS&#45;&gt;DMEM -->
<g id="edge3" class="edge">
<title>BUS&#45;&gt;DMEM</title>
<path fill="none" stroke="black" stroke-width="2" d="M682.75,-384.76C682.75,-384.76 682.75,-260.1 682.75,-260.1"/>
<polygon fill="black" stroke="black" stroke-width="2" points="686.25,-260.1 682.75,-250.1 679.25,-260.1 686.25,-260.1"/>
<polygon fill="black" stroke="black" stroke-width="2" points="679.25,-384.76 682.75,-394.76 686.25,-384.76 679.25,-384.76"/>
</g>
<!-- UART -->
<g id="node7" class="node">
<title>UART</title>
<path fill="#90ee90" stroke="black" d="M407,-250C407,-250 345,-250 345,-250 339,-250 333,-244 333,-238 333,-238 333,-215 333,-215 333,-209 339,-203 345,-203 345,-203 407,-203 407,-203 413,-203 419,-209 419,-215 419,-215 419,-238 419,-238 419,-244 413,-250 407,-250"/>
<text text-anchor="middle" x="376" y="-222.8" font-family="sans-serif" font-size="14.00">UART</text>
</g>
<!-- BUS&#45;&gt;UART -->
<g id="edge4" class="edge">
<title>BUS&#45;&gt;UART</title>
<path fill="none" stroke="black" stroke-width="1.5" d="M496.69,-416C496.69,-416 376,-416 376,-416 376,-416 376,-260.12 376,-260.12"/>
<polygon fill="black" stroke="black" stroke-width="1.5" points="496.69,-419.5 506.69,-416 496.69,-412.5 496.69,-419.5"/>
<polygon fill="black" stroke="black" stroke-width="1.5" points="379.5,-260.12 376,-250.12 372.5,-260.12 379.5,-260.12"/>
</g>
<!-- GPIO -->
<g id="node8" class="node">
<title>GPIO</title>
<path fill="#90ee90" stroke="black" d="M191,-250C191,-250 129,-250 129,-250 123,-250 117,-244 117,-238 117,-238 117,-215 117,-215 117,-209 123,-203 129,-203 129,-203 191,-203 191,-203 197,-203 203,-209 203,-215 203,-215 203,-238 203,-238 203,-244 197,-250 191,-250"/>
<text text-anchor="middle" x="160" y="-222.8" font-family="sans-serif" font-size="14.00">GPIO</text>
</g>
<!-- BUS&#45;&gt;GPIO -->
<g id="edge5" class="edge">
<title>BUS&#45;&gt;GPIO</title>
<path fill="none" stroke="black" stroke-width="1.5" d="M496.99,-438C496.99,-438 191.33,-438 191.33,-438 191.33,-438 191.33,-260.35 191.33,-260.35"/>
<polygon fill="black" stroke="black" stroke-width="1.5" points="496.99,-441.5 506.99,-438 496.99,-434.5 496.99,-441.5"/>
<polygon fill="black" stroke="black" stroke-width="1.5" points="194.83,-260.35 191.33,-250.35 187.83,-260.35 194.83,-260.35"/>
</g>
<!-- UART&#45;&gt;PLIC -->
<g id="edge7" class="edge">
<title>UART&#45;&gt;PLIC</title>
<path fill="none" stroke="#696969" stroke-dasharray="5,2" d="M332.78,-238C298.15,-238 255.33,-238 255.33,-238 255.33,-238 255.33,-609.85 255.33,-609.85"/>
<polygon fill="#696969" stroke="#696969" points="251.83,-609.85 255.33,-619.85 258.83,-609.85 251.83,-609.85"/>
<text text-anchor="middle" x="293" y="-424.7" font-family="sans-serif" font-size="11.00"> int </text>
</g>
<!-- EXT -->
<g id="node9" class="node">
<title>EXT</title>
<path fill="#e0ffff" stroke="black" d="M310,-47C310,-47 226,-47 226,-47 220,-47 214,-41 214,-35 214,-35 214,-12 214,-12 214,-6 220,0 226,0 226,0 310,0 310,0 316,0 322,-6 322,-12 322,-12 322,-35 322,-35 322,-41 316,-47 310,-47"/>
<text text-anchor="middle" x="268" y="-19.8" font-family="sans-serif" font-size="14.00">External I/O</text>
</g>
<!-- UART&#45;&gt;EXT -->
<g id="edge10" class="edge">
<title>UART&#45;&gt;EXT</title>
<path fill="none" stroke="black" stroke-width="1.5" d="M323,-214C323,-214 299,-214 299,-214 299,-214 299,-57.24 299,-57.24"/>
<polygon fill="black" stroke="black" stroke-width="1.5" points="323,-217.5 333,-214 323,-210.5 323,-217.5"/>
<polygon fill="black" stroke="black" stroke-width="1.5" points="302.5,-57.24 299,-47.24 295.5,-57.24 302.5,-57.24"/>
<text text-anchor="middle" x="383.5" y="-122.2" font-family="sans-serif" font-size="11.00"> TX/RX </text>
</g>
<!-- GPIO&#45;&gt;PLIC -->
<g id="edge8" class="edge">
<title>GPIO&#45;&gt;PLIC</title>
<path fill="none" stroke="#696969" stroke-dasharray="5,2" d="M179.67,-250.2C179.67,-250.2 179.67,-609.99 179.67,-609.99"/>
<polygon fill="#696969" stroke="#696969" points="176.17,-609.99 179.67,-619.99 183.17,-609.99 176.17,-609.99"/>
<text text-anchor="middle" x="11" y="-424.7" font-family="sans-serif" font-size="11.00"> int </text>
</g>
<!-- GPIO&#45;&gt;EXT -->
<g id="edge11" class="edge">
<title>GPIO&#45;&gt;EXT</title>
<path fill="none" stroke="black" stroke-width="1.5" d="M213,-226C213,-226 234.67,-226 234.67,-226 234.67,-226 234.67,-57.13 234.67,-57.13"/>
<polygon fill="black" stroke="black" stroke-width="1.5" points="213,-222.5 203,-226 213,-229.5 213,-222.5"/>
<polygon fill="black" stroke="black" stroke-width="1.5" points="238.17,-57.13 234.67,-47.13 231.17,-57.13 238.17,-57.13"/>
<text text-anchor="middle" x="200.5" y="-122.2" font-family="sans-serif" font-size="11.00"> pins </text>
</g>
</g>
</svg>
