<?xml version="1.0" encoding="UTF-8" standalone="no"?>
<!DOCTYPE svg PUBLIC "-//W3C//DTD SVG 1.1//EN"
 "http://www.w3.org/Graphics/SVG/1.1/DTD/svg11.dtd">
<!-- Generated by graphviz version 2.43.0 (0)
 -->
<!-- Title: Forwarding Pages: 1 -->
<svg width="546pt" height="253pt"
 viewBox="0.00 0.00 546.00 253.00" xmlns="http://www.w3.org/2000/svg" xmlns:xlink="http://www.w3.org/1999/xlink">
<g id="graph0" class="graph" transform="scale(1 1) rotate(0) translate(4 249)">
<title>Forwarding</title>
<polygon fill="white" stroke="transparent" points="-4,4 -4,-249 542,-249 542,4 -4,4"/>
<!-- RF -->
<g id="node1" class="node">
<title>RF</title>
<path fill="#90ee90" stroke="black" d="M82,-245C82,-245 12,-245 12,-245 6,-245 0,-239 0,-233 0,-233 0,-214 0,-214 0,-208 6,-202 12,-202 12,-202 82,-202 82,-202 88,-202 94,-208 94,-214 94,-214 94,-233 94,-233 94,-239 88,-245 82,-245"/>
<text text-anchor="middle" x="47" y="-227.3" font-family="sans-serif" font-size="14.00">Register</text>
<text text-anchor="middle" x="47" y="-212.3" font-family="sans-serif" font-size="14.00">File</text>
</g>
<!-- MUX -->
<g id="node5" class="node">
<title>MUX</title>
<path fill="#ffa500" stroke="black" d="M308,-144C308,-144 238,-144 238,-144 232,-144 226,-138 226,-132 226,-132 226,-113 226,-113 226,-107 232,-101 238,-101 238,-101 308,-101 308,-101 314,-101 320,-107 320,-113 320,-113 320,-132 320,-132 320,-138 314,-144 308,-144"/>
<text text-anchor="middle" x="273" y="-126.3" font-family="sans-serif" font-size="14.00">Forwarding</text>
<text text-anchor="middle" x="273" y="-111.3" font-family="sans-serif" font-size="14.00">Mux</text>
</g>
<!-- RF&#45;&gt;MUX -->
<g id="edge1" class="edge">
<title>RF&#45;&gt;MUX</title>
<path fill="none" stroke="black" d="M94.1,-223.5C160.34,-223.5 273,-223.5 273,-223.5 273,-223.5 273,-154.42 273,-154.42"/>
<polygon fill="black" stroke="black" points="276.5,-154.42 273,-144.42 269.5,-154.42 276.5,-154.42"/>
<text text-anchor="middle" x="160" y="-226.3" font-family="sans-serif" font-size="9.00">RF data</text>
</g>
<!-- EX -->
<g id="node2" class="node">
<title>EX</title>
<path fill="#ffffe0" stroke="black" d="M526,-144C526,-144 456,-144 456,-144 450,-144 444,-138 444,-132 444,-132 444,-113 444,-113 444,-107 450,-101 456,-101 456,-101 526,-101 526,-101 532,-101 538,-107 538,-113 538,-113 538,-132 538,-132 538,-138 532,-144 526,-144"/>
<text text-anchor="middle" x="491" y="-126.3" font-family="sans-serif" font-size="14.00">Execute</text>
<text text-anchor="middle" x="491" y="-111.3" font-family="sans-serif" font-size="14.00">Stage</text>
</g>
<!-- EX&#45;&gt;MUX -->
<g id="edge2" class="edge">
<title>EX&#45;&gt;MUX</title>
<path fill="none" stroke="#ff4500" stroke-dasharray="5,2" d="M443.97,-115.33C443.97,-115.33 330.33,-115.33 330.33,-115.33"/>
<polygon fill="#ff4500" stroke="#ff4500" points="330.33,-111.83 320.33,-115.33 330.33,-118.83 330.33,-111.83"/>
<text text-anchor="middle" x="382" y="-94.3" font-family="sans-serif" font-size="9.00">forward</text>
<text text-anchor="middle" x="382" y="-84.3" font-family="sans-serif" font-size="9.00">from EX</text>
</g>
<!-- MEM -->
<g id="node3" class="node">
<title>MEM</title>
<path fill="#87ceeb" stroke="black" d="M82,-144C82,-144 12,-144 12,-144 6,-144 0,-138 0,-132 0,-132 0,-113 0,-113 0,-107 6,-101 12,-101 12,-101 82,-101 82,-101 88,-101 94,-107 94,-113 94,-113 94,-132 94,-132 94,-138 88,-144 82,-144"/>
<text text-anchor="middle" x="47" y="-126.3" font-family="sans-serif" font-size="14.00">Memory</text>
<text text-anchor="middle" x="47" y="-111.3" font-family="sans-serif" font-size="14.00">Stage</text>
</g>
<!-- MEM&#45;&gt;MUX -->
<g id="edge3" class="edge">
<title>MEM&#45;&gt;MUX</title>
<path fill="none" stroke="#ff4500" stroke-dasharray="5,2" d="M94.1,-122.5C94.1,-122.5 215.96,-122.5 215.96,-122.5"/>
<polygon fill="#ff4500" stroke="#ff4500" points="215.96,-126 225.96,-122.5 215.96,-119 215.96,-126"/>
<text text-anchor="middle" x="160" y="-135.3" font-family="sans-serif" font-size="9.00">forward</text>
<text text-anchor="middle" x="160" y="-125.3" font-family="sans-serif" font-size="9.00">from MEM</text>
</g>
<!-- WB -->
<g id="node4" class="node">
<title>WB</title>
<path fill="#e0ffff" stroke="black" d="M82,-43C82,-43 12,-43 12,-43 6,-43 0,-37 0,-31 0,-31 0,-12 0,-12 0,-6 6,0 12,0 12,0 82,0 82,0 88,0 94,-6 94,-12 94,-12 94,-31 94,-31 94,-37 88,-43 82,-43"/>
<text text-anchor="middle" x="47" y="-25.3" font-family="sans-serif" font-size="14.00">Writeback</text>
<text text-anchor="middle" x="47" y="-10.3" font-family="sans-serif" font-size="14.00">Stage</text>
</g>
<!-- WB&#45;&gt;MUX -->
<g id="edge4" class="edge">
<title>WB&#45;&gt;MUX</title>
<path fill="none" stroke="#ff4500" stroke-dasharray="5,2" d="M94.1,-21.5C160.34,-21.5 273,-21.5 273,-21.5 273,-21.5 273,-90.58 273,-90.58"/>
<polygon fill="#ff4500" stroke="#ff4500" points="269.5,-90.58 273,-100.58 276.5,-90.58 269.5,-90.58"/>
<text text-anchor="middle" x="160" y="-34.3" font-family="sans-serif" font-size="9.00">forward</text>
<text text-anchor="middle" x="160" y="-24.3" font-family="sans-serif" font-size="9.00">from WB</text>
</g>
<!-- MUX&#45;&gt;EX -->
<g id="edge5" class="edge">
<title>MUX&#45;&gt;EX</title>
<path fill="none" stroke="black" d="M320.03,-129.67C320.03,-129.67 433.67,-129.67 433.67,-129.67"/>
<polygon fill="black" stroke="black" points="433.67,-133.17 443.67,-129.67 433.67,-126.17 433.67,-133.17"/>
<text text-anchor="middle" x="382" y="-167.3" font-family="sans-serif" font-size="9.00">operand</text>
</g>
</g>
</svg>
